<mxfile host="Electron" agent="Mozilla/5.0 (Windows NT 10.0; Win64; x64) AppleWebKit/537.36 (KHTML, like Gecko) draw.io/27.0.9 Chrome/134.0.6998.205 Electron/35.4.0 Safari/537.36" version="27.0.9" pages="13">
  <diagram id="cOkN994JsgNkXrXQWmEZ" name="cxoneflow-deployment">
    <mxGraphModel dx="1426" dy="841" grid="1" gridSize="10" guides="1" tooltips="1" connect="1" arrows="1" fold="1" page="1" pageScale="1" pageWidth="1100" pageHeight="850" math="0" shadow="0">
      <root>
        <mxCell id="0" />
        <mxCell id="1" parent="0" />
        <mxCell id="JGMNbRoBRr_krMU7PQw4-9" value="Checkmarx One&lt;div&gt;Self-Hosted&lt;/div&gt;" style="rounded=1;whiteSpace=wrap;html=1;" parent="1" vertex="1">
          <mxGeometry x="530" y="590" width="120" height="60" as="geometry" />
        </mxCell>
        <mxCell id="JGMNbRoBRr_krMU7PQw4-37" value="Checkmarx One&lt;div&gt;Cloud Hosted&lt;/div&gt;" style="rounded=1;whiteSpace=wrap;html=1;" parent="1" vertex="1">
          <mxGeometry x="680" y="170" width="120" height="60" as="geometry" />
        </mxCell>
        <mxCell id="JGMNbRoBRr_krMU7PQw4-52" value="CxOneFlow&lt;div&gt;Endpoint&lt;/div&gt;" style="rounded=0;whiteSpace=wrap;html=1;" parent="1" vertex="1">
          <mxGeometry x="530" y="415.5" width="120" height="60" as="geometry" />
        </mxCell>
        <mxCell id="JGMNbRoBRr_krMU7PQw4-59" value="" style="group" parent="1" vertex="1" connectable="0">
          <mxGeometry x="40" y="340" width="240" height="180" as="geometry" />
        </mxCell>
        <mxCell id="JGMNbRoBRr_krMU7PQw4-58" value="On-Premise SCMs" style="rounded=1;whiteSpace=wrap;html=1;align=center;verticalAlign=top;fillColor=#E8E8E8;" parent="JGMNbRoBRr_krMU7PQw4-59" vertex="1">
          <mxGeometry width="240" height="180" as="geometry" />
        </mxCell>
        <mxCell id="JGMNbRoBRr_krMU7PQw4-46" value="" style="group" parent="JGMNbRoBRr_krMU7PQw4-59" vertex="1" connectable="0">
          <mxGeometry x="45" y="46" width="150" height="89.5" as="geometry" />
        </mxCell>
        <mxCell id="JGMNbRoBRr_krMU7PQw4-47" value="" style="rounded=1;whiteSpace=wrap;html=1;" parent="JGMNbRoBRr_krMU7PQw4-46" vertex="1">
          <mxGeometry width="120" height="60" as="geometry" />
        </mxCell>
        <mxCell id="JGMNbRoBRr_krMU7PQw4-48" value="" style="rounded=1;whiteSpace=wrap;html=1;" parent="JGMNbRoBRr_krMU7PQw4-46" vertex="1">
          <mxGeometry x="10" y="10" width="120" height="60" as="geometry" />
        </mxCell>
        <mxCell id="JGMNbRoBRr_krMU7PQw4-49" value="" style="rounded=1;whiteSpace=wrap;html=1;" parent="JGMNbRoBRr_krMU7PQw4-46" vertex="1">
          <mxGeometry x="20" y="20" width="120" height="60" as="geometry" />
        </mxCell>
        <mxCell id="JGMNbRoBRr_krMU7PQw4-50" value="SCM Instances/&lt;div&gt;Organizations&lt;/div&gt;" style="rounded=1;whiteSpace=wrap;html=1;" parent="JGMNbRoBRr_krMU7PQw4-46" vertex="1">
          <mxGeometry x="30" y="29.5" width="120" height="60" as="geometry" />
        </mxCell>
        <mxCell id="JGMNbRoBRr_krMU7PQw4-60" value="" style="group" parent="1" vertex="1" connectable="0">
          <mxGeometry x="40" y="84.5" width="240" height="180" as="geometry" />
        </mxCell>
        <mxCell id="JGMNbRoBRr_krMU7PQw4-55" value="Cloud SCMs" style="rounded=1;whiteSpace=wrap;html=1;align=center;verticalAlign=top;fillColor=#E8E8E8;" parent="JGMNbRoBRr_krMU7PQw4-60" vertex="1">
          <mxGeometry width="240" height="180" as="geometry" />
        </mxCell>
        <mxCell id="JGMNbRoBRr_krMU7PQw4-45" value="" style="group" parent="JGMNbRoBRr_krMU7PQw4-60" vertex="1" connectable="0">
          <mxGeometry x="45" y="45.25" width="150" height="89.5" as="geometry" />
        </mxCell>
        <mxCell id="JGMNbRoBRr_krMU7PQw4-42" value="" style="rounded=1;whiteSpace=wrap;html=1;" parent="JGMNbRoBRr_krMU7PQw4-45" vertex="1">
          <mxGeometry width="120" height="60" as="geometry" />
        </mxCell>
        <mxCell id="JGMNbRoBRr_krMU7PQw4-43" value="" style="rounded=1;whiteSpace=wrap;html=1;" parent="JGMNbRoBRr_krMU7PQw4-45" vertex="1">
          <mxGeometry x="10" y="10" width="120" height="60" as="geometry" />
        </mxCell>
        <mxCell id="JGMNbRoBRr_krMU7PQw4-44" value="" style="rounded=1;whiteSpace=wrap;html=1;" parent="JGMNbRoBRr_krMU7PQw4-45" vertex="1">
          <mxGeometry x="20" y="20" width="120" height="60" as="geometry" />
        </mxCell>
        <mxCell id="JGMNbRoBRr_krMU7PQw4-41" value="SCM Instances/&lt;div&gt;Organizations&lt;/div&gt;" style="rounded=1;whiteSpace=wrap;html=1;" parent="JGMNbRoBRr_krMU7PQw4-45" vertex="1">
          <mxGeometry x="30" y="29.5" width="120" height="60" as="geometry" />
        </mxCell>
        <mxCell id="JGMNbRoBRr_krMU7PQw4-57" style="edgeStyle=orthogonalEdgeStyle;rounded=0;orthogonalLoop=1;jettySize=auto;html=1;exitX=0.5;exitY=1;exitDx=0;exitDy=0;" parent="JGMNbRoBRr_krMU7PQw4-60" source="JGMNbRoBRr_krMU7PQw4-55" target="JGMNbRoBRr_krMU7PQw4-55" edge="1">
          <mxGeometry relative="1" as="geometry" />
        </mxCell>
        <mxCell id="JGMNbRoBRr_krMU7PQw4-62" value="" style="endArrow=classic;html=1;rounded=0;entryX=0;entryY=0.75;entryDx=0;entryDy=0;exitX=1;exitY=0.75;exitDx=0;exitDy=0;" parent="1" source="JGMNbRoBRr_krMU7PQw4-50" target="JGMNbRoBRr_krMU7PQw4-52" edge="1">
          <mxGeometry width="50" height="50" relative="1" as="geometry">
            <mxPoint x="330" y="500" as="sourcePoint" />
            <mxPoint x="380" y="450" as="targetPoint" />
          </mxGeometry>
        </mxCell>
        <mxCell id="JGMNbRoBRr_krMU7PQw4-63" value="" style="endArrow=classic;html=1;rounded=0;entryX=1;entryY=0.25;entryDx=0;entryDy=0;exitX=0;exitY=0.25;exitDx=0;exitDy=0;" parent="1" source="JGMNbRoBRr_krMU7PQw4-52" target="JGMNbRoBRr_krMU7PQw4-50" edge="1">
          <mxGeometry width="50" height="50" relative="1" as="geometry">
            <mxPoint x="440" y="430" as="sourcePoint" />
            <mxPoint x="490" y="380" as="targetPoint" />
          </mxGeometry>
        </mxCell>
        <mxCell id="JGMNbRoBRr_krMU7PQw4-64" value="API Access/Clone" style="text;html=1;align=center;verticalAlign=middle;whiteSpace=wrap;rounded=0;" parent="1" vertex="1">
          <mxGeometry x="320" y="410" width="145" height="30" as="geometry" />
        </mxCell>
        <mxCell id="JGMNbRoBRr_krMU7PQw4-65" value="Webhook Events" style="text;html=1;align=center;verticalAlign=middle;whiteSpace=wrap;rounded=0;" parent="1" vertex="1">
          <mxGeometry x="320" y="455" width="145" height="30" as="geometry" />
        </mxCell>
        <mxCell id="JGMNbRoBRr_krMU7PQw4-66" value="" style="endArrow=classic;html=1;rounded=0;exitX=1;exitY=0.75;exitDx=0;exitDy=0;entryX=0.25;entryY=0;entryDx=0;entryDy=0;" parent="1" source="JGMNbRoBRr_krMU7PQw4-41" target="JGMNbRoBRr_krMU7PQw4-52" edge="1">
          <mxGeometry width="50" height="50" relative="1" as="geometry">
            <mxPoint x="570" y="200" as="sourcePoint" />
            <mxPoint x="550" y="220" as="targetPoint" />
            <Array as="points">
              <mxPoint x="560" y="204" />
            </Array>
          </mxGeometry>
        </mxCell>
        <mxCell id="JGMNbRoBRr_krMU7PQw4-67" value="" style="endArrow=classic;html=1;rounded=0;entryX=1;entryY=0.25;entryDx=0;entryDy=0;exitX=0.75;exitY=0;exitDx=0;exitDy=0;" parent="1" source="JGMNbRoBRr_krMU7PQw4-52" target="JGMNbRoBRr_krMU7PQw4-41" edge="1">
          <mxGeometry width="50" height="50" relative="1" as="geometry">
            <mxPoint x="500" y="230" as="sourcePoint" />
            <mxPoint x="550" y="180" as="targetPoint" />
            <Array as="points">
              <mxPoint x="620" y="174" />
            </Array>
          </mxGeometry>
        </mxCell>
        <mxCell id="JGMNbRoBRr_krMU7PQw4-68" value="API Access/Clone" style="text;html=1;align=center;verticalAlign=middle;whiteSpace=wrap;rounded=0;" parent="1" vertex="1">
          <mxGeometry x="320" y="150.5" width="145" height="30" as="geometry" />
        </mxCell>
        <mxCell id="JGMNbRoBRr_krMU7PQw4-70" value="Webhook Events" style="text;html=1;align=center;verticalAlign=middle;whiteSpace=wrap;rounded=0;" parent="1" vertex="1">
          <mxGeometry x="320" y="200" width="145" height="30" as="geometry" />
        </mxCell>
        <mxCell id="JGMNbRoBRr_krMU7PQw4-71" value="" style="endArrow=classic;html=1;rounded=0;entryX=0.5;entryY=0;entryDx=0;entryDy=0;exitX=0.5;exitY=1;exitDx=0;exitDy=0;" parent="1" source="JGMNbRoBRr_krMU7PQw4-52" target="JGMNbRoBRr_krMU7PQw4-9" edge="1">
          <mxGeometry width="50" height="50" relative="1" as="geometry">
            <mxPoint x="350" y="680" as="sourcePoint" />
            <mxPoint x="400" y="630" as="targetPoint" />
          </mxGeometry>
        </mxCell>
        <mxCell id="JGMNbRoBRr_krMU7PQw4-72" value="API Access" style="text;html=1;align=center;verticalAlign=middle;whiteSpace=wrap;rounded=0;rotation=90;" parent="1" vertex="1">
          <mxGeometry x="530" y="511" width="145" height="30" as="geometry" />
        </mxCell>
        <mxCell id="JGMNbRoBRr_krMU7PQw4-73" value="" style="endArrow=classic;html=1;rounded=0;exitX=1;exitY=0.5;exitDx=0;exitDy=0;entryX=0.5;entryY=1;entryDx=0;entryDy=0;" parent="1" source="JGMNbRoBRr_krMU7PQw4-52" target="JGMNbRoBRr_krMU7PQw4-37" edge="1">
          <mxGeometry width="50" height="50" relative="1" as="geometry">
            <mxPoint x="730" y="460" as="sourcePoint" />
            <mxPoint x="780" y="410" as="targetPoint" />
            <Array as="points">
              <mxPoint x="740" y="445" />
            </Array>
          </mxGeometry>
        </mxCell>
        <mxCell id="JGMNbRoBRr_krMU7PQw4-53" value="Firewall/Load Balancer/Proxy" style="rounded=0;whiteSpace=wrap;html=1;" parent="1" vertex="1">
          <mxGeometry x="40" y="290" width="760" height="30" as="geometry" />
        </mxCell>
        <mxCell id="JGMNbRoBRr_krMU7PQw4-74" value="API Access" style="text;html=1;align=center;verticalAlign=middle;whiteSpace=wrap;rounded=0;rotation=-90;" parent="1" vertex="1">
          <mxGeometry x="657" y="360" width="145" height="30" as="geometry" />
        </mxCell>
      </root>
    </mxGraphModel>
  </diagram>
  <diagram name="cxlink-deployment" id="9TIlVBbsfDb1xO_sMJLA">
    <mxGraphModel dx="1426" dy="841" grid="1" gridSize="10" guides="1" tooltips="1" connect="1" arrows="1" fold="1" page="1" pageScale="1" pageWidth="1100" pageHeight="850" math="0" shadow="0">
      <root>
        <mxCell id="cZElb9tqheFvIvB8J83t-0" />
        <mxCell id="cZElb9tqheFvIvB8J83t-1" parent="cZElb9tqheFvIvB8J83t-0" />
        <mxCell id="ONJOzuefDREo3jNytISY-21" value="Checkmarx One&lt;div&gt;Cloud Hosted&lt;/div&gt;" style="rounded=1;whiteSpace=wrap;html=1;align=center;verticalAlign=top;fillColor=#E8E8E8;" vertex="1" parent="cZElb9tqheFvIvB8J83t-1">
          <mxGeometry x="400" y="110" width="420" height="130" as="geometry" />
        </mxCell>
        <mxCell id="eJmqqKVKORuohZV9In1t-0" value="" style="endArrow=classic;startArrow=classic;html=1;rounded=0;entryX=0.25;entryY=1;entryDx=0;entryDy=0;entryPerimeter=0;exitX=0.25;exitY=0;exitDx=0;exitDy=0;exitPerimeter=0;" parent="cZElb9tqheFvIvB8J83t-1" source="ONJOzuefDREo3jNytISY-11" target="ONJOzuefDREo3jNytISY-10" edge="1">
          <mxGeometry width="50" height="50" relative="1" as="geometry">
            <mxPoint x="500" y="370" as="sourcePoint" />
            <mxPoint x="475" y="220" as="targetPoint" />
            <Array as="points" />
          </mxGeometry>
        </mxCell>
        <mxCell id="cZElb9tqheFvIvB8J83t-22" value="API Access/Clone" style="text;html=1;align=center;verticalAlign=middle;whiteSpace=wrap;rounded=0;" parent="cZElb9tqheFvIvB8J83t-1" vertex="1">
          <mxGeometry x="269" y="409" width="145" height="30" as="geometry" />
        </mxCell>
        <mxCell id="cZElb9tqheFvIvB8J83t-23" value="Webhook Events" style="text;html=1;align=center;verticalAlign=middle;whiteSpace=wrap;rounded=0;" parent="cZElb9tqheFvIvB8J83t-1" vertex="1">
          <mxGeometry x="268" y="455" width="145" height="30" as="geometry" />
        </mxCell>
        <mxCell id="cZElb9tqheFvIvB8J83t-30" value="" style="endArrow=classic;html=1;rounded=0;entryX=0.13;entryY=1;entryDx=0;entryDy=0;entryPerimeter=0;exitX=0.13;exitY=0;exitDx=0;exitDy=0;exitPerimeter=0;" parent="cZElb9tqheFvIvB8J83t-1" source="ONJOzuefDREo3jNytISY-11" target="ONJOzuefDREo3jNytISY-10" edge="1">
          <mxGeometry width="50" height="50" relative="1" as="geometry">
            <mxPoint x="420" y="370" as="sourcePoint" />
            <mxPoint x="462" y="220" as="targetPoint" />
            <Array as="points" />
          </mxGeometry>
        </mxCell>
        <mxCell id="cZElb9tqheFvIvB8J83t-32" value="Establish Tunnel" style="text;html=1;align=center;verticalAlign=middle;whiteSpace=wrap;rounded=0;rotation=-90;" parent="cZElb9tqheFvIvB8J83t-1" vertex="1">
          <mxGeometry x="348" y="336" width="145" height="30" as="geometry" />
        </mxCell>
        <mxCell id="eJmqqKVKORuohZV9In1t-1" value="Tunnel Traffic" style="text;html=1;align=center;verticalAlign=middle;whiteSpace=wrap;rounded=0;rotation=90;" parent="cZElb9tqheFvIvB8J83t-1" vertex="1">
          <mxGeometry x="385" y="335" width="145" height="30" as="geometry" />
        </mxCell>
        <mxCell id="cZElb9tqheFvIvB8J83t-6" value="On-Premise SCMs" style="rounded=1;whiteSpace=wrap;html=1;align=center;verticalAlign=top;fillColor=#E8E8E8;" parent="cZElb9tqheFvIvB8J83t-1" vertex="1">
          <mxGeometry x="40" y="360" width="240" height="160" as="geometry" />
        </mxCell>
        <mxCell id="cZElb9tqheFvIvB8J83t-7" value="" style="group" parent="cZElb9tqheFvIvB8J83t-1" vertex="1" connectable="0">
          <mxGeometry x="65" y="386" width="150" height="89.5" as="geometry" />
        </mxCell>
        <mxCell id="cZElb9tqheFvIvB8J83t-11" value="On-Prem SCM" style="rounded=1;whiteSpace=wrap;html=1;" parent="cZElb9tqheFvIvB8J83t-7" vertex="1">
          <mxGeometry x="30" y="29.5" width="120" height="60" as="geometry" />
        </mxCell>
        <mxCell id="cZElb9tqheFvIvB8J83t-21" value="" style="endArrow=classic;html=1;rounded=0;entryX=1;entryY=0.25;entryDx=0;entryDy=0;exitX=0;exitY=0.25;exitDx=0;exitDy=0;exitPerimeter=0;" parent="cZElb9tqheFvIvB8J83t-1" source="ONJOzuefDREo3jNytISY-11" target="cZElb9tqheFvIvB8J83t-11" edge="1">
          <mxGeometry width="50" height="50" relative="1" as="geometry">
            <mxPoint x="420" y="430.5" as="sourcePoint" />
            <mxPoint x="490" y="380" as="targetPoint" />
          </mxGeometry>
        </mxCell>
        <mxCell id="cZElb9tqheFvIvB8J83t-19" style="edgeStyle=orthogonalEdgeStyle;rounded=0;orthogonalLoop=1;jettySize=auto;html=1;exitX=0.5;exitY=1;exitDx=0;exitDy=0;" parent="cZElb9tqheFvIvB8J83t-1" edge="1">
          <mxGeometry relative="1" as="geometry">
            <mxPoint x="160" y="264.5" as="sourcePoint" />
            <mxPoint x="160" y="264.5" as="targetPoint" />
          </mxGeometry>
        </mxCell>
        <mxCell id="ONJOzuefDREo3jNytISY-10" value="Checkmarx One&lt;div&gt;Source Pulling&lt;/div&gt;" style="rounded=1;whiteSpace=wrap;html=1;points=[[0,0,0,0,0],[0,0.25,0,0,0],[0,0.5,0,0,0],[0,0.75,0,0,0],[0,1,0,0,0],[0.13,1,0,0,0],[0.25,0,0,0,0],[0.25,1,0,0,0],[0.38,1,0,0,0],[0.5,0,0,0,0],[0.5,1,0,0,0],[0.63,1,0,0,0],[0.75,0,0,0,0],[0.75,1,0,0,0],[0.88,1,0,0,0],[1,0,0,0,0],[1,0.25,0,0,0],[1,0.5,0,0,0],[1,0.75,0,0,0],[1,1,0,0,0]];" vertex="1" parent="cZElb9tqheFvIvB8J83t-1">
          <mxGeometry x="410" y="150" width="150" height="60" as="geometry" />
        </mxCell>
        <mxCell id="ONJOzuefDREo3jNytISY-11" value="CxLink Agent" style="rounded=0;whiteSpace=wrap;html=1;points=[[0,0,0,0,0],[0,0.25,0,0,0],[0,0.5,0,0,0],[0,0.75,0,0,0],[0,1,0,0,0],[0.13,0,0,0,0],[0.25,0,0,0,0],[0.25,1,0,0,0],[0.38,0,0,0,0],[0.5,0,0,0,0],[0.5,1,0,0,0],[0.63,0,0,0,0],[0.75,0,0,0,0],[0.75,1,0,0,0],[0.88,0,0,0,0],[1,0,0,0,0],[1,0.25,0,0,0],[1,0.5,0,0,0],[1,0.75,0,0,0],[1,1,0,0,0]];" vertex="1" parent="cZElb9tqheFvIvB8J83t-1">
          <mxGeometry x="410" y="415.5" width="150" height="60" as="geometry" />
        </mxCell>
        <mxCell id="ONJOzuefDREo3jNytISY-19" value="Checkmarx One&lt;div&gt;Feedback Apps&lt;/div&gt;" style="rounded=1;whiteSpace=wrap;html=1;points=[[0,0,0,0,0],[0,0.25,0,0,0],[0,0.5,0,0,0],[0,0.75,0,0,0],[0,1,0,0,0],[0.13,1,0,0,0],[0.25,0,0,0,0],[0.25,1,0,0,0],[0.38,1,0,0,0],[0.5,0,0,0,0],[0.5,1,0,0,0],[0.63,1,0,0,0],[0.75,0,0,0,0],[0.75,1,0,0,0],[0.88,1,0,0,0],[1,0,0,0,0],[1,0.25,0,0,0],[1,0.5,0,0,0],[1,0.75,0,0,0],[1,1,0,0,0]];" vertex="1" parent="cZElb9tqheFvIvB8J83t-1">
          <mxGeometry x="660" y="150" width="150" height="60" as="geometry" />
        </mxCell>
        <mxCell id="ONJOzuefDREo3jNytISY-26" value="" style="group" vertex="1" connectable="0" parent="cZElb9tqheFvIvB8J83t-1">
          <mxGeometry x="40" y="540" width="240" height="160" as="geometry" />
        </mxCell>
        <mxCell id="ONJOzuefDREo3jNytISY-13" value="On-Premise&lt;div&gt;Issue Trackers&lt;/div&gt;" style="rounded=1;whiteSpace=wrap;html=1;align=center;verticalAlign=top;fillColor=#E8E8E8;" vertex="1" parent="ONJOzuefDREo3jNytISY-26">
          <mxGeometry width="240" height="160" as="geometry" />
        </mxCell>
        <mxCell id="ONJOzuefDREo3jNytISY-17" value="On-Prem Issue Tracker" style="rounded=1;whiteSpace=wrap;html=1;" vertex="1" parent="ONJOzuefDREo3jNytISY-26">
          <mxGeometry x="60" y="55.5" width="120" height="60" as="geometry" />
        </mxCell>
        <mxCell id="ONJOzuefDREo3jNytISY-27" value="CxLink Agent" style="rounded=0;whiteSpace=wrap;html=1;points=[[0,0,0,0,0],[0,0.25,0,0,0],[0,0.5,0,0,0],[0,0.75,0,0,0],[0,1,0,0,0],[0.13,0,0,0,0],[0.25,0,0,0,0],[0.25,1,0,0,0],[0.38,0,0,0,0],[0.5,0,0,0,0],[0.5,1,0,0,0],[0.63,0,0,0,0],[0.75,0,0,0,0],[0.75,1,0,0,0],[0.88,0,0,0,0],[1,0,0,0,0],[1,0.25,0,0,0],[1,0.5,0,0,0],[1,0.75,0,0,0],[1,1,0,0,0]];" vertex="1" parent="cZElb9tqheFvIvB8J83t-1">
          <mxGeometry x="410" y="595" width="150" height="60" as="geometry" />
        </mxCell>
        <mxCell id="ONJOzuefDREo3jNytISY-28" value="" style="endArrow=classic;html=1;rounded=0;entryX=0.13;entryY=1;entryDx=0;entryDy=0;entryPerimeter=0;exitX=1;exitY=0.25;exitDx=0;exitDy=0;exitPerimeter=0;" edge="1" parent="cZElb9tqheFvIvB8J83t-1" source="ONJOzuefDREo3jNytISY-27" target="ONJOzuefDREo3jNytISY-19">
          <mxGeometry width="50" height="50" relative="1" as="geometry">
            <mxPoint x="680" y="425" as="sourcePoint" />
            <mxPoint x="680" y="219" as="targetPoint" />
            <Array as="points">
              <mxPoint x="680" y="609" />
            </Array>
          </mxGeometry>
        </mxCell>
        <mxCell id="ONJOzuefDREo3jNytISY-29" value="Establish Tunnel" style="text;html=1;align=center;verticalAlign=middle;whiteSpace=wrap;rounded=0;rotation=-90;" vertex="1" parent="cZElb9tqheFvIvB8J83t-1">
          <mxGeometry x="600" y="366" width="145" height="30" as="geometry" />
        </mxCell>
        <mxCell id="ONJOzuefDREo3jNytISY-30" value="" style="endArrow=classic;startArrow=classic;html=1;rounded=0;entryX=0.38;entryY=1;entryDx=0;entryDy=0;entryPerimeter=0;exitX=1;exitY=0.75;exitDx=0;exitDy=0;exitPerimeter=0;" edge="1" parent="cZElb9tqheFvIvB8J83t-1" source="ONJOzuefDREo3jNytISY-27" target="ONJOzuefDREo3jNytISY-19">
          <mxGeometry width="50" height="50" relative="1" as="geometry">
            <mxPoint x="790" y="576" as="sourcePoint" />
            <mxPoint x="790" y="370" as="targetPoint" />
            <Array as="points">
              <mxPoint x="720" y="640" />
            </Array>
          </mxGeometry>
        </mxCell>
        <mxCell id="ONJOzuefDREo3jNytISY-31" value="Tunnel Traffic" style="text;html=1;align=center;verticalAlign=middle;whiteSpace=wrap;rounded=0;rotation=90;" vertex="1" parent="cZElb9tqheFvIvB8J83t-1">
          <mxGeometry x="655" y="356" width="145" height="30" as="geometry" />
        </mxCell>
        <mxCell id="cZElb9tqheFvIvB8J83t-20" value="" style="endArrow=classic;html=1;rounded=0;exitX=1;exitY=0.75;exitDx=0;exitDy=0;entryX=1;entryY=0.75;entryDx=0;entryDy=0;entryPerimeter=0;" parent="cZElb9tqheFvIvB8J83t-1" source="cZElb9tqheFvIvB8J83t-11" target="ONJOzuefDREo3jNytISY-10" edge="1">
          <mxGeometry width="50" height="50" relative="1" as="geometry">
            <mxPoint x="330" y="500" as="sourcePoint" />
            <mxPoint x="670" y="205" as="targetPoint" />
            <Array as="points">
              <mxPoint x="400" y="460" />
              <mxPoint x="400" y="490" />
              <mxPoint x="580" y="490" />
              <mxPoint x="580" y="195" />
            </Array>
          </mxGeometry>
        </mxCell>
        <mxCell id="cZElb9tqheFvIvB8J83t-31" value="Firewall/Load Balancer/Proxy" style="rounded=0;whiteSpace=wrap;html=1;" parent="cZElb9tqheFvIvB8J83t-1" vertex="1">
          <mxGeometry x="40" y="260" width="1000" height="30" as="geometry" />
        </mxCell>
        <mxCell id="ONJOzuefDREo3jNytISY-34" value="" style="endArrow=classic;html=1;rounded=0;entryX=1;entryY=0.5;entryDx=0;entryDy=0;exitX=0;exitY=0.5;exitDx=0;exitDy=0;exitPerimeter=0;" edge="1" parent="cZElb9tqheFvIvB8J83t-1" source="ONJOzuefDREo3jNytISY-27" target="ONJOzuefDREo3jNytISY-17">
          <mxGeometry width="50" height="50" relative="1" as="geometry">
            <mxPoint x="330" y="730" as="sourcePoint" />
            <mxPoint x="380" y="680" as="targetPoint" />
          </mxGeometry>
        </mxCell>
        <mxCell id="ONJOzuefDREo3jNytISY-35" value="API Access" style="text;html=1;align=center;verticalAlign=middle;whiteSpace=wrap;rounded=0;" vertex="1" parent="cZElb9tqheFvIvB8J83t-1">
          <mxGeometry x="265" y="605" width="145" height="30" as="geometry" />
        </mxCell>
      </root>
    </mxGraphModel>
  </diagram>
  <diagram name="cxlink-hybrid-deployment" id="taFRty7MNUJkOuGzi4-D">
    <mxGraphModel dx="1426" dy="841" grid="1" gridSize="10" guides="1" tooltips="1" connect="1" arrows="1" fold="1" page="1" pageScale="1" pageWidth="1100" pageHeight="850" math="0" shadow="0">
      <root>
        <mxCell id="aBp9cY5UV_to7eqwD_k0-0" />
        <mxCell id="aBp9cY5UV_to7eqwD_k0-1" parent="aBp9cY5UV_to7eqwD_k0-0" />
        <mxCell id="aBp9cY5UV_to7eqwD_k0-2" value="Checkmarx One&lt;div&gt;Cloud Hosted&lt;/div&gt;" style="rounded=1;whiteSpace=wrap;html=1;align=center;verticalAlign=top;fillColor=#E8E8E8;" vertex="1" parent="aBp9cY5UV_to7eqwD_k0-1">
          <mxGeometry x="400" y="110" width="420" height="130" as="geometry" />
        </mxCell>
        <mxCell id="WmPwGvZdga7sNCtmcl5x-1" value="" style="endArrow=classic;html=1;rounded=0;exitX=0.5;exitY=0;exitDx=0;exitDy=0;entryX=0.5;entryY=1;entryDx=0;entryDy=0;entryPerimeter=0;" edge="1" parent="aBp9cY5UV_to7eqwD_k0-1" source="sdWIprtGK76OOoAydWrS-0" target="aBp9cY5UV_to7eqwD_k0-14">
          <mxGeometry width="50" height="50" relative="1" as="geometry">
            <mxPoint x="760" y="480" as="sourcePoint" />
            <mxPoint x="810" y="430" as="targetPoint" />
          </mxGeometry>
        </mxCell>
        <mxCell id="aBp9cY5UV_to7eqwD_k0-13" style="edgeStyle=orthogonalEdgeStyle;rounded=0;orthogonalLoop=1;jettySize=auto;html=1;exitX=0.5;exitY=1;exitDx=0;exitDy=0;" edge="1" parent="aBp9cY5UV_to7eqwD_k0-1">
          <mxGeometry relative="1" as="geometry">
            <mxPoint x="160" y="264.5" as="sourcePoint" />
            <mxPoint x="160" y="264.5" as="targetPoint" />
          </mxGeometry>
        </mxCell>
        <mxCell id="aBp9cY5UV_to7eqwD_k0-14" value="Checkmarx One&lt;div&gt;Scanning&lt;/div&gt;" style="rounded=1;whiteSpace=wrap;html=1;points=[[0,0,0,0,0],[0,0.25,0,0,0],[0,0.5,0,0,0],[0,0.75,0,0,0],[0,1,0,0,0],[0.13,1,0,0,0],[0.25,0,0,0,0],[0.25,1,0,0,0],[0.38,1,0,0,0],[0.5,0,0,0,0],[0.5,1,0,0,0],[0.63,1,0,0,0],[0.75,0,0,0,0],[0.75,1,0,0,0],[0.88,1,0,0,0],[1,0,0,0,0],[1,0.25,0,0,0],[1,0.5,0,0,0],[1,0.75,0,0,0],[1,1,0,0,0]];" vertex="1" parent="aBp9cY5UV_to7eqwD_k0-1">
          <mxGeometry x="410" y="150" width="150" height="60" as="geometry" />
        </mxCell>
        <mxCell id="aBp9cY5UV_to7eqwD_k0-16" value="Checkmarx One&lt;div&gt;Feedback Apps&lt;/div&gt;" style="rounded=1;whiteSpace=wrap;html=1;points=[[0,0,0,0,0],[0,0.25,0,0,0],[0,0.5,0,0,0],[0,0.75,0,0,0],[0,1,0,0,0],[0.13,1,0,0,0],[0.25,0,0,0,0],[0.25,1,0,0,0],[0.38,1,0,0,0],[0.5,0,0,0,0],[0.5,1,0,0,0],[0.63,1,0,0,0],[0.75,0,0,0,0],[0.75,1,0,0,0],[0.88,1,0,0,0],[1,0,0,0,0],[1,0.25,0,0,0],[1,0.5,0,0,0],[1,0.75,0,0,0],[1,1,0,0,0]];" vertex="1" parent="aBp9cY5UV_to7eqwD_k0-1">
          <mxGeometry x="660" y="150" width="150" height="60" as="geometry" />
        </mxCell>
        <mxCell id="aBp9cY5UV_to7eqwD_k0-17" value="" style="group" vertex="1" connectable="0" parent="aBp9cY5UV_to7eqwD_k0-1">
          <mxGeometry x="40" y="540" width="240" height="160" as="geometry" />
        </mxCell>
        <mxCell id="aBp9cY5UV_to7eqwD_k0-18" value="On-Premise&lt;div&gt;Issue Trackers&lt;/div&gt;" style="rounded=1;whiteSpace=wrap;html=1;align=center;verticalAlign=top;fillColor=#E8E8E8;" vertex="1" parent="aBp9cY5UV_to7eqwD_k0-17">
          <mxGeometry width="240" height="160" as="geometry" />
        </mxCell>
        <mxCell id="aBp9cY5UV_to7eqwD_k0-19" value="On-Prem Issue Tracker" style="rounded=1;whiteSpace=wrap;html=1;" vertex="1" parent="aBp9cY5UV_to7eqwD_k0-17">
          <mxGeometry x="60" y="55.5" width="120" height="60" as="geometry" />
        </mxCell>
        <mxCell id="aBp9cY5UV_to7eqwD_k0-20" value="CxLink Agent" style="rounded=0;whiteSpace=wrap;html=1;points=[[0,0,0,0,0],[0,0.25,0,0,0],[0,0.5,0,0,0],[0,0.75,0,0,0],[0,1,0,0,0],[0.13,0,0,0,0],[0.25,0,0,0,0],[0.25,1,0,0,0],[0.38,0,0,0,0],[0.5,0,0,0,0],[0.5,1,0,0,0],[0.63,0,0,0,0],[0.75,0,0,0,0],[0.75,1,0,0,0],[0.88,0,0,0,0],[1,0,0,0,0],[1,0.25,0,0,0],[1,0.5,0,0,0],[1,0.75,0,0,0],[1,1,0,0,0]];" vertex="1" parent="aBp9cY5UV_to7eqwD_k0-1">
          <mxGeometry x="410" y="595" width="150" height="60" as="geometry" />
        </mxCell>
        <mxCell id="aBp9cY5UV_to7eqwD_k0-21" value="" style="endArrow=classic;html=1;rounded=0;entryX=0.13;entryY=1;entryDx=0;entryDy=0;entryPerimeter=0;exitX=1;exitY=0.25;exitDx=0;exitDy=0;exitPerimeter=0;" edge="1" parent="aBp9cY5UV_to7eqwD_k0-1" source="aBp9cY5UV_to7eqwD_k0-20" target="aBp9cY5UV_to7eqwD_k0-16">
          <mxGeometry width="50" height="50" relative="1" as="geometry">
            <mxPoint x="680" y="425" as="sourcePoint" />
            <mxPoint x="680" y="219" as="targetPoint" />
            <Array as="points">
              <mxPoint x="680" y="609" />
            </Array>
          </mxGeometry>
        </mxCell>
        <mxCell id="aBp9cY5UV_to7eqwD_k0-22" value="Establish Tunnel" style="text;html=1;align=center;verticalAlign=middle;whiteSpace=wrap;rounded=0;rotation=-90;" vertex="1" parent="aBp9cY5UV_to7eqwD_k0-1">
          <mxGeometry x="600" y="366" width="145" height="30" as="geometry" />
        </mxCell>
        <mxCell id="aBp9cY5UV_to7eqwD_k0-23" value="" style="endArrow=classic;startArrow=classic;html=1;rounded=0;entryX=0.38;entryY=1;entryDx=0;entryDy=0;entryPerimeter=0;exitX=1;exitY=0.75;exitDx=0;exitDy=0;exitPerimeter=0;" edge="1" parent="aBp9cY5UV_to7eqwD_k0-1" source="aBp9cY5UV_to7eqwD_k0-20" target="aBp9cY5UV_to7eqwD_k0-16">
          <mxGeometry width="50" height="50" relative="1" as="geometry">
            <mxPoint x="790" y="576" as="sourcePoint" />
            <mxPoint x="790" y="370" as="targetPoint" />
            <Array as="points">
              <mxPoint x="720" y="640" />
            </Array>
          </mxGeometry>
        </mxCell>
        <mxCell id="aBp9cY5UV_to7eqwD_k0-24" value="Tunnel Traffic" style="text;html=1;align=center;verticalAlign=middle;whiteSpace=wrap;rounded=0;rotation=90;" vertex="1" parent="aBp9cY5UV_to7eqwD_k0-1">
          <mxGeometry x="655" y="356" width="145" height="30" as="geometry" />
        </mxCell>
        <mxCell id="aBp9cY5UV_to7eqwD_k0-26" value="Firewall" style="rounded=0;whiteSpace=wrap;html=1;" vertex="1" parent="aBp9cY5UV_to7eqwD_k0-1">
          <mxGeometry x="400" y="260" width="420" height="30" as="geometry" />
        </mxCell>
        <mxCell id="aBp9cY5UV_to7eqwD_k0-27" value="" style="endArrow=classic;html=1;rounded=0;entryX=1;entryY=0.5;entryDx=0;entryDy=0;exitX=0;exitY=0.5;exitDx=0;exitDy=0;exitPerimeter=0;" edge="1" parent="aBp9cY5UV_to7eqwD_k0-1" source="aBp9cY5UV_to7eqwD_k0-20" target="aBp9cY5UV_to7eqwD_k0-19">
          <mxGeometry width="50" height="50" relative="1" as="geometry">
            <mxPoint x="330" y="730" as="sourcePoint" />
            <mxPoint x="380" y="680" as="targetPoint" />
          </mxGeometry>
        </mxCell>
        <mxCell id="aBp9cY5UV_to7eqwD_k0-28" value="API Access" style="text;html=1;align=center;verticalAlign=middle;whiteSpace=wrap;rounded=0;" vertex="1" parent="aBp9cY5UV_to7eqwD_k0-1">
          <mxGeometry x="265" y="605" width="145" height="30" as="geometry" />
        </mxCell>
        <mxCell id="bXc_tYCHXXXxCoOQhfcg-0" value="" style="group" vertex="1" connectable="0" parent="aBp9cY5UV_to7eqwD_k0-1">
          <mxGeometry x="40" y="335" width="240" height="180" as="geometry" />
        </mxCell>
        <mxCell id="bXc_tYCHXXXxCoOQhfcg-1" value="On-Premise SCMs" style="rounded=1;whiteSpace=wrap;html=1;align=center;verticalAlign=top;fillColor=#E8E8E8;" vertex="1" parent="bXc_tYCHXXXxCoOQhfcg-0">
          <mxGeometry width="240" height="180" as="geometry" />
        </mxCell>
        <mxCell id="bXc_tYCHXXXxCoOQhfcg-2" value="" style="group" vertex="1" connectable="0" parent="bXc_tYCHXXXxCoOQhfcg-0">
          <mxGeometry x="45" y="46" width="150" height="89.5" as="geometry" />
        </mxCell>
        <mxCell id="bXc_tYCHXXXxCoOQhfcg-3" value="" style="rounded=1;whiteSpace=wrap;html=1;" vertex="1" parent="bXc_tYCHXXXxCoOQhfcg-2">
          <mxGeometry width="120" height="60" as="geometry" />
        </mxCell>
        <mxCell id="bXc_tYCHXXXxCoOQhfcg-4" value="" style="rounded=1;whiteSpace=wrap;html=1;" vertex="1" parent="bXc_tYCHXXXxCoOQhfcg-2">
          <mxGeometry x="10" y="10" width="120" height="60" as="geometry" />
        </mxCell>
        <mxCell id="bXc_tYCHXXXxCoOQhfcg-5" value="" style="rounded=1;whiteSpace=wrap;html=1;" vertex="1" parent="bXc_tYCHXXXxCoOQhfcg-2">
          <mxGeometry x="20" y="20" width="120" height="60" as="geometry" />
        </mxCell>
        <mxCell id="bXc_tYCHXXXxCoOQhfcg-6" value="SCM Instances/&lt;div&gt;Organizations&lt;/div&gt;" style="rounded=1;whiteSpace=wrap;html=1;" vertex="1" parent="bXc_tYCHXXXxCoOQhfcg-2">
          <mxGeometry x="30" y="29.5" width="120" height="60" as="geometry" />
        </mxCell>
        <mxCell id="sdWIprtGK76OOoAydWrS-0" value="CxOneFlow&lt;div&gt;Endpoint&lt;/div&gt;" style="rounded=0;whiteSpace=wrap;html=1;" vertex="1" parent="aBp9cY5UV_to7eqwD_k0-1">
          <mxGeometry x="410" y="410" width="150" height="60" as="geometry" />
        </mxCell>
        <mxCell id="DCbTAqCLdUZC1uoNSQld-0" value="API Access/Clone" style="text;html=1;align=center;verticalAlign=middle;whiteSpace=wrap;rounded=0;" vertex="1" parent="aBp9cY5UV_to7eqwD_k0-1">
          <mxGeometry x="270" y="403" width="145" height="30" as="geometry" />
        </mxCell>
        <mxCell id="DCbTAqCLdUZC1uoNSQld-1" value="Webhook Events" style="text;html=1;align=center;verticalAlign=middle;whiteSpace=wrap;rounded=0;" vertex="1" parent="aBp9cY5UV_to7eqwD_k0-1">
          <mxGeometry x="265" y="450" width="145" height="30" as="geometry" />
        </mxCell>
        <mxCell id="DCbTAqCLdUZC1uoNSQld-2" value="" style="endArrow=classic;html=1;rounded=0;entryX=1;entryY=0.25;entryDx=0;entryDy=0;exitX=0;exitY=0.25;exitDx=0;exitDy=0;" edge="1" parent="aBp9cY5UV_to7eqwD_k0-1" source="sdWIprtGK76OOoAydWrS-0" target="bXc_tYCHXXXxCoOQhfcg-6">
          <mxGeometry width="50" height="50" relative="1" as="geometry">
            <mxPoint x="350" y="440" as="sourcePoint" />
            <mxPoint x="400" y="390" as="targetPoint" />
          </mxGeometry>
        </mxCell>
        <mxCell id="DCbTAqCLdUZC1uoNSQld-3" value="" style="endArrow=classic;html=1;rounded=0;exitX=1;exitY=0.75;exitDx=0;exitDy=0;entryX=0;entryY=0.75;entryDx=0;entryDy=0;" edge="1" parent="aBp9cY5UV_to7eqwD_k0-1" source="bXc_tYCHXXXxCoOQhfcg-6" target="sdWIprtGK76OOoAydWrS-0">
          <mxGeometry width="50" height="50" relative="1" as="geometry">
            <mxPoint x="360" y="560" as="sourcePoint" />
            <mxPoint x="410" y="510" as="targetPoint" />
          </mxGeometry>
        </mxCell>
        <mxCell id="WmPwGvZdga7sNCtmcl5x-0" value="API Access" style="text;html=1;align=center;verticalAlign=middle;whiteSpace=wrap;rounded=0;rotation=-90;" vertex="1" parent="aBp9cY5UV_to7eqwD_k0-1">
          <mxGeometry x="405" y="335" width="145" height="30" as="geometry" />
        </mxCell>
      </root>
    </mxGraphModel>
  </diagram>
  <diagram id="dBe9B6LdRN9JKCyBIhIk" name="cloud-only-cxone">
    <mxGraphModel dx="1426" dy="841" grid="1" gridSize="10" guides="1" tooltips="1" connect="1" arrows="1" fold="1" page="1" pageScale="1" pageWidth="1100" pageHeight="850" math="0" shadow="0">
      <root>
        <mxCell id="0" />
        <mxCell id="1" parent="0" />
        <mxCell id="k6c_XUt5D34dhA1BtaKs-1" value="Checkmarx One&lt;div&gt;Cloud Hosted&lt;/div&gt;" style="rounded=1;whiteSpace=wrap;html=1;" vertex="1" parent="1">
          <mxGeometry x="270" y="110" width="120" height="60" as="geometry" />
        </mxCell>
        <mxCell id="FAkNB-Bs5LEyw9nViz4y-1" value="SCM&lt;div&gt;Cloud Hosted&lt;/div&gt;" style="rounded=1;whiteSpace=wrap;html=1;" vertex="1" parent="1">
          <mxGeometry x="170" y="290" width="120" height="60" as="geometry" />
        </mxCell>
        <mxCell id="FAkNB-Bs5LEyw9nViz4y-2" value="Issue Tracker&lt;div&gt;Cloud Hosted&lt;/div&gt;" style="rounded=1;whiteSpace=wrap;html=1;" vertex="1" parent="1">
          <mxGeometry x="370" y="290" width="120" height="60" as="geometry" />
        </mxCell>
        <mxCell id="FAkNB-Bs5LEyw9nViz4y-3" value="" style="endArrow=classic;html=1;rounded=0;entryX=0;entryY=0.5;entryDx=0;entryDy=0;exitX=0.25;exitY=0;exitDx=0;exitDy=0;" edge="1" parent="1" source="FAkNB-Bs5LEyw9nViz4y-1" target="k6c_XUt5D34dhA1BtaKs-1">
          <mxGeometry width="50" height="50" relative="1" as="geometry">
            <mxPoint x="130" y="430" as="sourcePoint" />
            <mxPoint x="180" y="380" as="targetPoint" />
            <Array as="points">
              <mxPoint x="200" y="140" />
            </Array>
          </mxGeometry>
        </mxCell>
        <mxCell id="FAkNB-Bs5LEyw9nViz4y-4" value="" style="endArrow=classic;html=1;rounded=0;entryX=0.5;entryY=0;entryDx=0;entryDy=0;exitX=0;exitY=0.75;exitDx=0;exitDy=0;" edge="1" parent="1" source="k6c_XUt5D34dhA1BtaKs-1" target="FAkNB-Bs5LEyw9nViz4y-1">
          <mxGeometry width="50" height="50" relative="1" as="geometry">
            <mxPoint x="240" y="500" as="sourcePoint" />
            <mxPoint x="290" y="450" as="targetPoint" />
            <Array as="points">
              <mxPoint x="230" y="155" />
              <mxPoint x="230" y="230" />
            </Array>
          </mxGeometry>
        </mxCell>
        <mxCell id="FAkNB-Bs5LEyw9nViz4y-5" value="" style="endArrow=classic;html=1;rounded=0;exitX=1;exitY=0.5;exitDx=0;exitDy=0;entryX=0.5;entryY=0;entryDx=0;entryDy=0;" edge="1" parent="1" source="k6c_XUt5D34dhA1BtaKs-1" target="FAkNB-Bs5LEyw9nViz4y-2">
          <mxGeometry width="50" height="50" relative="1" as="geometry">
            <mxPoint x="250" y="460" as="sourcePoint" />
            <mxPoint x="300" y="410" as="targetPoint" />
            <Array as="points">
              <mxPoint x="430" y="140" />
            </Array>
          </mxGeometry>
        </mxCell>
        <mxCell id="FAkNB-Bs5LEyw9nViz4y-6" value="API Access/Clone" style="text;html=1;align=center;verticalAlign=middle;whiteSpace=wrap;rounded=0;rotation=90;" vertex="1" parent="1">
          <mxGeometry x="190" y="210" width="110" height="30" as="geometry" />
        </mxCell>
        <mxCell id="FAkNB-Bs5LEyw9nViz4y-7" value="Webhook Events" style="text;html=1;align=center;verticalAlign=middle;whiteSpace=wrap;rounded=0;rotation=-90;" vertex="1" parent="1">
          <mxGeometry x="129" y="210" width="120" height="30" as="geometry" />
        </mxCell>
        <mxCell id="FAkNB-Bs5LEyw9nViz4y-8" value="API Access" style="text;html=1;align=center;verticalAlign=middle;whiteSpace=wrap;rounded=0;rotation=90;" vertex="1" parent="1">
          <mxGeometry x="390" y="210" width="110" height="30" as="geometry" />
        </mxCell>
      </root>
    </mxGraphModel>
  </diagram>
  <diagram name="cxoneflow-deployment-old" id="K2vFNdNuRs0CPyayD4rR">
    <mxGraphModel dx="1434" dy="844" grid="1" gridSize="10" guides="1" tooltips="1" connect="1" arrows="1" fold="1" page="1" pageScale="1" pageWidth="1100" pageHeight="850" math="0" shadow="0">
      <root>
        <mxCell id="0" />
        <mxCell id="1" parent="0" />
        <mxCell id="xIbpthMDQHaRVzhuKisp-6" value="GitHub Enterprise&lt;div&gt;Instances&lt;/div&gt;" style="rounded=0;whiteSpace=wrap;html=1;verticalAlign=top;" parent="1" vertex="1">
          <mxGeometry x="90" y="30" width="150" height="160" as="geometry" />
        </mxCell>
        <mxCell id="xIbpthMDQHaRVzhuKisp-8" value="Org A" style="rounded=1;whiteSpace=wrap;html=1;" parent="1" vertex="1">
          <mxGeometry x="120" y="70" width="80" height="30" as="geometry" />
        </mxCell>
        <mxCell id="xIbpthMDQHaRVzhuKisp-9" value="Org B" style="rounded=1;whiteSpace=wrap;html=1;" parent="1" vertex="1">
          <mxGeometry x="120" y="110" width="80" height="30" as="geometry" />
        </mxCell>
        <mxCell id="xIbpthMDQHaRVzhuKisp-10" value="Org C" style="rounded=1;whiteSpace=wrap;html=1;" parent="1" vertex="1">
          <mxGeometry x="120" y="150" width="80" height="30" as="geometry" />
        </mxCell>
        <mxCell id="xIbpthMDQHaRVzhuKisp-11" value="BitBucket Data Center&lt;div&gt;Instances&lt;/div&gt;" style="rounded=0;whiteSpace=wrap;html=1;verticalAlign=top;" parent="1" vertex="1">
          <mxGeometry x="90" y="348" width="150" height="160" as="geometry" />
        </mxCell>
        <mxCell id="xIbpthMDQHaRVzhuKisp-12" value="Project A" style="rounded=1;whiteSpace=wrap;html=1;" parent="1" vertex="1">
          <mxGeometry x="120" y="388" width="80" height="30" as="geometry" />
        </mxCell>
        <mxCell id="xIbpthMDQHaRVzhuKisp-13" value="Project B" style="rounded=1;whiteSpace=wrap;html=1;" parent="1" vertex="1">
          <mxGeometry x="120" y="428" width="80" height="30" as="geometry" />
        </mxCell>
        <mxCell id="xIbpthMDQHaRVzhuKisp-14" value="Project C" style="rounded=1;whiteSpace=wrap;html=1;" parent="1" vertex="1">
          <mxGeometry x="120" y="468" width="80" height="30" as="geometry" />
        </mxCell>
        <mxCell id="xIbpthMDQHaRVzhuKisp-18" value="Checkmarx One&lt;div&gt;Self-Hosted&lt;/div&gt;" style="rounded=1;whiteSpace=wrap;html=1;" parent="1" vertex="1">
          <mxGeometry x="770" y="354.5" width="120" height="60" as="geometry" />
        </mxCell>
        <mxCell id="xIbpthMDQHaRVzhuKisp-19" value="Checkmarx One&lt;div&gt;Single-Tenant&lt;/div&gt;" style="rounded=1;whiteSpace=wrap;html=1;" parent="1" vertex="1">
          <mxGeometry x="770" y="284.5" width="120" height="60" as="geometry" />
        </mxCell>
        <mxCell id="xIbpthMDQHaRVzhuKisp-26" value="Azure DevOps Enterprise&lt;div&gt;Instances&lt;/div&gt;" style="rounded=0;whiteSpace=wrap;html=1;verticalAlign=top;" parent="1" vertex="1">
          <mxGeometry x="90" y="515" width="150" height="221" as="geometry" />
        </mxCell>
        <mxCell id="b1Gclu3747dBT0L4u0lb-6" value="Collection 1" style="rounded=0;whiteSpace=wrap;html=1;align=left;verticalAlign=top;fillColor=#E6E6E6;" parent="1" vertex="1">
          <mxGeometry x="90" y="550" width="150" height="112" as="geometry" />
        </mxCell>
        <mxCell id="xIbpthMDQHaRVzhuKisp-31" value="Project A" style="rounded=1;whiteSpace=wrap;html=1;" parent="1" vertex="1">
          <mxGeometry x="120" y="580.5" width="80" height="30" as="geometry" />
        </mxCell>
        <mxCell id="xIbpthMDQHaRVzhuKisp-32" value="Project B" style="rounded=1;whiteSpace=wrap;html=1;" parent="1" vertex="1">
          <mxGeometry x="120" y="620.5" width="80" height="30" as="geometry" />
        </mxCell>
        <mxCell id="b1Gclu3747dBT0L4u0lb-7" value="Collection 2" style="rounded=0;whiteSpace=wrap;html=1;align=left;verticalAlign=top;fillColor=#dae8fc;strokeColor=#6c8ebf;" parent="1" vertex="1">
          <mxGeometry x="90" y="662" width="150" height="78" as="geometry" />
        </mxCell>
        <mxCell id="xIbpthMDQHaRVzhuKisp-33" value="Project C" style="rounded=1;whiteSpace=wrap;html=1;" parent="1" vertex="1">
          <mxGeometry x="120" y="692" width="80" height="30" as="geometry" />
        </mxCell>
        <mxCell id="xIbpthMDQHaRVzhuKisp-34" value="" style="endArrow=classic;html=1;rounded=0;exitX=1;exitY=0.5;exitDx=0;exitDy=0;entryX=0;entryY=0.5;entryDx=0;entryDy=0;" parent="1" source="xIbpthMDQHaRVzhuKisp-2" target="b1Gclu3747dBT0L4u0lb-14" edge="1">
          <mxGeometry width="50" height="50" relative="1" as="geometry">
            <mxPoint x="590" y="210" as="sourcePoint" />
            <mxPoint x="770" y="220" as="targetPoint" />
          </mxGeometry>
        </mxCell>
        <mxCell id="xIbpthMDQHaRVzhuKisp-35" value="" style="endArrow=classic;html=1;rounded=0;exitX=1;exitY=0.5;exitDx=0;exitDy=0;entryX=0;entryY=0.5;entryDx=0;entryDy=0;" parent="1" source="xIbpthMDQHaRVzhuKisp-2" target="xIbpthMDQHaRVzhuKisp-19" edge="1">
          <mxGeometry width="50" height="50" relative="1" as="geometry">
            <mxPoint x="640" y="360" as="sourcePoint" />
            <mxPoint x="730" y="290" as="targetPoint" />
          </mxGeometry>
        </mxCell>
        <mxCell id="xIbpthMDQHaRVzhuKisp-36" value="" style="endArrow=classic;html=1;rounded=0;exitX=1;exitY=0.5;exitDx=0;exitDy=0;entryX=0;entryY=0.5;entryDx=0;entryDy=0;" parent="1" source="xIbpthMDQHaRVzhuKisp-2" target="xIbpthMDQHaRVzhuKisp-18" edge="1">
          <mxGeometry width="50" height="50" relative="1" as="geometry">
            <mxPoint x="650" y="370" as="sourcePoint" />
            <mxPoint x="740" y="300" as="targetPoint" />
          </mxGeometry>
        </mxCell>
        <mxCell id="xIbpthMDQHaRVzhuKisp-45" value="" style="endArrow=classic;html=1;rounded=0;entryX=0;entryY=0.5;entryDx=0;entryDy=0;exitX=1;exitY=0.5;exitDx=0;exitDy=0;" parent="1" source="xIbpthMDQHaRVzhuKisp-14" target="xIbpthMDQHaRVzhuKisp-4" edge="1">
          <mxGeometry width="50" height="50" relative="1" as="geometry">
            <mxPoint x="310" y="240" as="sourcePoint" />
            <mxPoint x="360" y="190" as="targetPoint" />
            <Array as="points">
              <mxPoint x="330" y="483" />
              <mxPoint x="330" y="331" />
            </Array>
          </mxGeometry>
        </mxCell>
        <mxCell id="xIbpthMDQHaRVzhuKisp-46" value="" style="endArrow=classic;html=1;rounded=0;exitX=1;exitY=0.5;exitDx=0;exitDy=0;entryX=0;entryY=0.5;entryDx=0;entryDy=0;" parent="1" source="xIbpthMDQHaRVzhuKisp-13" target="xIbpthMDQHaRVzhuKisp-4" edge="1">
          <mxGeometry width="50" height="50" relative="1" as="geometry">
            <mxPoint x="320" y="190" as="sourcePoint" />
            <mxPoint x="370" y="140" as="targetPoint" />
            <Array as="points">
              <mxPoint x="330" y="443" />
              <mxPoint x="330" y="331" />
            </Array>
          </mxGeometry>
        </mxCell>
        <mxCell id="xIbpthMDQHaRVzhuKisp-47" value="" style="endArrow=classic;html=1;rounded=0;exitX=1;exitY=0.5;exitDx=0;exitDy=0;entryX=0;entryY=0.5;entryDx=0;entryDy=0;" parent="1" source="xIbpthMDQHaRVzhuKisp-12" target="xIbpthMDQHaRVzhuKisp-4" edge="1">
          <mxGeometry width="50" height="50" relative="1" as="geometry">
            <mxPoint x="420" y="190" as="sourcePoint" />
            <mxPoint x="470" y="140" as="targetPoint" />
            <Array as="points">
              <mxPoint x="330" y="403" />
              <mxPoint x="330" y="331" />
            </Array>
          </mxGeometry>
        </mxCell>
        <mxCell id="xIbpthMDQHaRVzhuKisp-48" value="" style="endArrow=classic;html=1;rounded=0;exitX=1;exitY=0.5;exitDx=0;exitDy=0;entryX=0;entryY=0.5;entryDx=0;entryDy=0;" parent="1" source="xIbpthMDQHaRVzhuKisp-10" target="b1Gclu3747dBT0L4u0lb-1" edge="1">
          <mxGeometry width="50" height="50" relative="1" as="geometry">
            <mxPoint x="410" y="230" as="sourcePoint" />
            <mxPoint x="460" y="180" as="targetPoint" />
            <Array as="points">
              <mxPoint x="330" y="165" />
              <mxPoint x="330" y="280" />
            </Array>
          </mxGeometry>
        </mxCell>
        <mxCell id="xIbpthMDQHaRVzhuKisp-49" value="" style="endArrow=classic;html=1;rounded=0;exitX=1;exitY=0.5;exitDx=0;exitDy=0;entryX=0;entryY=0.5;entryDx=0;entryDy=0;" parent="1" source="xIbpthMDQHaRVzhuKisp-9" target="b1Gclu3747dBT0L4u0lb-1" edge="1">
          <mxGeometry width="50" height="50" relative="1" as="geometry">
            <mxPoint x="400" y="180" as="sourcePoint" />
            <mxPoint x="450" y="130" as="targetPoint" />
            <Array as="points">
              <mxPoint x="330" y="125" />
              <mxPoint x="330" y="280" />
            </Array>
          </mxGeometry>
        </mxCell>
        <mxCell id="xIbpthMDQHaRVzhuKisp-50" value="" style="endArrow=classic;html=1;rounded=0;exitX=1;exitY=0.5;exitDx=0;exitDy=0;entryX=0;entryY=0.5;entryDx=0;entryDy=0;" parent="1" source="xIbpthMDQHaRVzhuKisp-8" target="b1Gclu3747dBT0L4u0lb-1" edge="1">
          <mxGeometry width="50" height="50" relative="1" as="geometry">
            <mxPoint x="390" y="160" as="sourcePoint" />
            <mxPoint x="440" y="110" as="targetPoint" />
            <Array as="points">
              <mxPoint x="330" y="85" />
              <mxPoint x="330" y="280" />
            </Array>
          </mxGeometry>
        </mxCell>
        <mxCell id="xIbpthMDQHaRVzhuKisp-2" value="CxOneFlow" style="rounded=0;whiteSpace=wrap;html=1;verticalAlign=top;" parent="1" vertex="1">
          <mxGeometry x="510" y="220" width="120" height="190" as="geometry" />
        </mxCell>
        <mxCell id="xIbpthMDQHaRVzhuKisp-4" value="/bbdc" style="rounded=1;whiteSpace=wrap;html=1;" parent="1" vertex="1">
          <mxGeometry x="470" y="316" width="80" height="30" as="geometry" />
        </mxCell>
        <mxCell id="xIbpthMDQHaRVzhuKisp-5" value="/adoe" style="rounded=1;whiteSpace=wrap;html=1;" parent="1" vertex="1">
          <mxGeometry x="470" y="370" width="80" height="30" as="geometry" />
        </mxCell>
        <mxCell id="b1Gclu3747dBT0L4u0lb-1" value="/gh" style="rounded=1;whiteSpace=wrap;html=1;" parent="1" vertex="1">
          <mxGeometry x="470" y="264.5" width="80" height="30" as="geometry" />
        </mxCell>
        <mxCell id="b1Gclu3747dBT0L4u0lb-2" value="GitHub Cloud" style="rounded=0;whiteSpace=wrap;html=1;verticalAlign=top;" parent="1" vertex="1">
          <mxGeometry x="90" y="200.5" width="150" height="139.5" as="geometry" />
        </mxCell>
        <mxCell id="b1Gclu3747dBT0L4u0lb-3" value="Org A" style="rounded=1;whiteSpace=wrap;html=1;" parent="1" vertex="1">
          <mxGeometry x="120" y="224.5" width="80" height="30" as="geometry" />
        </mxCell>
        <mxCell id="b1Gclu3747dBT0L4u0lb-4" value="Org B" style="rounded=1;whiteSpace=wrap;html=1;" parent="1" vertex="1">
          <mxGeometry x="120" y="264.5" width="80" height="30" as="geometry" />
        </mxCell>
        <mxCell id="b1Gclu3747dBT0L4u0lb-5" value="Org C" style="rounded=1;whiteSpace=wrap;html=1;" parent="1" vertex="1">
          <mxGeometry x="120" y="304.5" width="80" height="30" as="geometry" />
        </mxCell>
        <mxCell id="b1Gclu3747dBT0L4u0lb-11" value="" style="endArrow=classic;html=1;rounded=0;entryX=0;entryY=0.5;entryDx=0;entryDy=0;exitX=1;exitY=0.5;exitDx=0;exitDy=0;" parent="1" source="b1Gclu3747dBT0L4u0lb-4" target="b1Gclu3747dBT0L4u0lb-1" edge="1">
          <mxGeometry width="50" height="50" relative="1" as="geometry">
            <mxPoint x="390" y="510" as="sourcePoint" />
            <mxPoint x="440" y="460" as="targetPoint" />
          </mxGeometry>
        </mxCell>
        <mxCell id="b1Gclu3747dBT0L4u0lb-12" value="" style="endArrow=classic;html=1;rounded=0;entryX=0;entryY=0.5;entryDx=0;entryDy=0;exitX=1;exitY=0.5;exitDx=0;exitDy=0;" parent="1" source="b1Gclu3747dBT0L4u0lb-3" target="b1Gclu3747dBT0L4u0lb-1" edge="1">
          <mxGeometry width="50" height="50" relative="1" as="geometry">
            <mxPoint x="410" y="470" as="sourcePoint" />
            <mxPoint x="460" y="420" as="targetPoint" />
            <Array as="points">
              <mxPoint x="330" y="240" />
              <mxPoint x="330" y="280" />
            </Array>
          </mxGeometry>
        </mxCell>
        <mxCell id="b1Gclu3747dBT0L4u0lb-13" value="" style="endArrow=classic;html=1;rounded=0;entryX=0;entryY=0.5;entryDx=0;entryDy=0;exitX=1;exitY=0.5;exitDx=0;exitDy=0;" parent="1" source="b1Gclu3747dBT0L4u0lb-5" target="b1Gclu3747dBT0L4u0lb-1" edge="1">
          <mxGeometry width="50" height="50" relative="1" as="geometry">
            <mxPoint x="430" y="530" as="sourcePoint" />
            <mxPoint x="480" y="480" as="targetPoint" />
            <Array as="points">
              <mxPoint x="330" y="320" />
              <mxPoint x="330" y="280" />
            </Array>
          </mxGeometry>
        </mxCell>
        <mxCell id="b1Gclu3747dBT0L4u0lb-14" value="Checkmarx One&lt;div&gt;Multi-Tenant&lt;/div&gt;" style="rounded=1;whiteSpace=wrap;html=1;" parent="1" vertex="1">
          <mxGeometry x="770" y="215" width="120" height="60" as="geometry" />
        </mxCell>
        <mxCell id="b1Gclu3747dBT0L4u0lb-15" value="" style="endArrow=classic;html=1;rounded=0;exitX=1;exitY=0.5;exitDx=0;exitDy=0;entryX=0;entryY=0.5;entryDx=0;entryDy=0;" parent="1" source="xIbpthMDQHaRVzhuKisp-31" target="xIbpthMDQHaRVzhuKisp-5" edge="1">
          <mxGeometry width="50" height="50" relative="1" as="geometry">
            <mxPoint x="330" y="630" as="sourcePoint" />
            <mxPoint x="380" y="580" as="targetPoint" />
            <Array as="points">
              <mxPoint x="350" y="596" />
              <mxPoint x="350" y="385" />
            </Array>
          </mxGeometry>
        </mxCell>
        <mxCell id="b1Gclu3747dBT0L4u0lb-16" value="" style="endArrow=classic;html=1;rounded=0;entryX=0;entryY=0.5;entryDx=0;entryDy=0;exitX=1;exitY=0.5;exitDx=0;exitDy=0;" parent="1" source="xIbpthMDQHaRVzhuKisp-32" target="xIbpthMDQHaRVzhuKisp-5" edge="1">
          <mxGeometry width="50" height="50" relative="1" as="geometry">
            <mxPoint x="390" y="590" as="sourcePoint" />
            <mxPoint x="440" y="540" as="targetPoint" />
            <Array as="points">
              <mxPoint x="350" y="636" />
              <mxPoint x="350" y="385" />
            </Array>
          </mxGeometry>
        </mxCell>
        <mxCell id="b1Gclu3747dBT0L4u0lb-17" value="" style="endArrow=classic;html=1;rounded=0;entryX=0;entryY=0.5;entryDx=0;entryDy=0;exitX=1;exitY=0.5;exitDx=0;exitDy=0;" parent="1" source="xIbpthMDQHaRVzhuKisp-33" target="xIbpthMDQHaRVzhuKisp-5" edge="1">
          <mxGeometry width="50" height="50" relative="1" as="geometry">
            <mxPoint x="460" y="600" as="sourcePoint" />
            <mxPoint x="510" y="550" as="targetPoint" />
            <Array as="points">
              <mxPoint x="350" y="707" />
              <mxPoint x="350" y="385" />
            </Array>
          </mxGeometry>
        </mxCell>
      </root>
    </mxGraphModel>
  </diagram>
  <diagram id="ICglYY8Zqcm8hTpe6O9R" name="Webhooks Brief">
    <mxGraphModel dx="1434" dy="844" grid="1" gridSize="10" guides="1" tooltips="1" connect="1" arrows="1" fold="1" page="1" pageScale="1" pageWidth="1100" pageHeight="850" math="0" shadow="0">
      <root>
        <mxCell id="0" />
        <mxCell id="1" parent="0" />
        <mxCell id="MHUyAzcI5C19YVDo6uBR-9" value="" style="group" vertex="1" connectable="0" parent="1">
          <mxGeometry x="360" y="205" width="160" height="120" as="geometry" />
        </mxCell>
        <mxCell id="MHUyAzcI5C19YVDo6uBR-10" value="CxOneFlow" style="rounded=0;whiteSpace=wrap;html=1;verticalAlign=top;" vertex="1" parent="MHUyAzcI5C19YVDo6uBR-9">
          <mxGeometry x="40" width="120" height="120" as="geometry" />
        </mxCell>
        <mxCell id="MHUyAzcI5C19YVDo6uBR-11" value="/bbdc" style="rounded=1;whiteSpace=wrap;html=1;" vertex="1" parent="MHUyAzcI5C19YVDo6uBR-9">
          <mxGeometry y="26" width="80" height="30" as="geometry" />
        </mxCell>
        <mxCell id="MHUyAzcI5C19YVDo6uBR-12" value="/adoe" style="rounded=1;whiteSpace=wrap;html=1;" vertex="1" parent="MHUyAzcI5C19YVDo6uBR-9">
          <mxGeometry y="80" width="80" height="30" as="geometry" />
        </mxCell>
        <mxCell id="MHUyAzcI5C19YVDo6uBR-14" value="Checkmarx One&lt;div&gt;Single-Tenant &lt;i&gt;N&lt;/i&gt;&lt;/div&gt;" style="rounded=1;whiteSpace=wrap;html=1;" vertex="1" parent="1">
          <mxGeometry x="660" y="390" width="120" height="60" as="geometry" />
        </mxCell>
        <mxCell id="MHUyAzcI5C19YVDo6uBR-15" value="Checkmarx One&lt;div&gt;Single-Tenant 1&lt;/div&gt;" style="rounded=1;whiteSpace=wrap;html=1;" vertex="1" parent="1">
          <mxGeometry x="660" y="300" width="120" height="60" as="geometry" />
        </mxCell>
        <mxCell id="MHUyAzcI5C19YVDo6uBR-28" value="" style="endArrow=classic;html=1;rounded=0;exitX=1;exitY=0.5;exitDx=0;exitDy=0;entryX=0;entryY=0.5;entryDx=0;entryDy=0;" edge="1" parent="1" source="MHUyAzcI5C19YVDo6uBR-10" target="MHUyAzcI5C19YVDo6uBR-15">
          <mxGeometry width="50" height="50" relative="1" as="geometry">
            <mxPoint x="530" y="275" as="sourcePoint" />
            <mxPoint x="620" y="205" as="targetPoint" />
          </mxGeometry>
        </mxCell>
        <mxCell id="MHUyAzcI5C19YVDo6uBR-29" value="" style="endArrow=classic;html=1;rounded=0;exitX=1;exitY=0.5;exitDx=0;exitDy=0;entryX=0;entryY=0.5;entryDx=0;entryDy=0;" edge="1" parent="1" source="MHUyAzcI5C19YVDo6uBR-10" target="MHUyAzcI5C19YVDo6uBR-14">
          <mxGeometry width="50" height="50" relative="1" as="geometry">
            <mxPoint x="540" y="285" as="sourcePoint" />
            <mxPoint x="630" y="215" as="targetPoint" />
          </mxGeometry>
        </mxCell>
        <mxCell id="MHUyAzcI5C19YVDo6uBR-44" value="Azure DevOps&lt;div&gt;Instance 1&lt;/div&gt;" style="rounded=1;whiteSpace=wrap;html=1;" vertex="1" parent="1">
          <mxGeometry x="40" y="340" width="120" height="60" as="geometry" />
        </mxCell>
        <mxCell id="MHUyAzcI5C19YVDo6uBR-45" value="Azure DevOps&lt;div&gt;Instance N&lt;/div&gt;" style="rounded=1;whiteSpace=wrap;html=1;" vertex="1" parent="1">
          <mxGeometry x="40" y="415" width="120" height="60" as="geometry" />
        </mxCell>
        <mxCell id="MHUyAzcI5C19YVDo6uBR-46" value="BitBucket DC&lt;div&gt;Instance 1&lt;/div&gt;" style="rounded=1;whiteSpace=wrap;html=1;" vertex="1" parent="1">
          <mxGeometry x="40" y="115" width="120" height="60" as="geometry" />
        </mxCell>
        <mxCell id="MHUyAzcI5C19YVDo6uBR-47" value="BitBucket DC&lt;div&gt;Instance N&lt;/div&gt;" style="rounded=1;whiteSpace=wrap;html=1;" vertex="1" parent="1">
          <mxGeometry x="40" y="190" width="120" height="60" as="geometry" />
        </mxCell>
        <mxCell id="MHUyAzcI5C19YVDo6uBR-48" value="" style="endArrow=classic;html=1;rounded=0;entryX=0;entryY=0.5;entryDx=0;entryDy=0;exitX=1;exitY=0.5;exitDx=0;exitDy=0;" edge="1" parent="1" source="MHUyAzcI5C19YVDo6uBR-45" target="MHUyAzcI5C19YVDo6uBR-12">
          <mxGeometry width="50" height="50" relative="1" as="geometry">
            <mxPoint x="240" y="500" as="sourcePoint" />
            <mxPoint x="290" y="450" as="targetPoint" />
            <Array as="points">
              <mxPoint x="270" y="445" />
              <mxPoint x="270" y="300" />
            </Array>
          </mxGeometry>
        </mxCell>
        <mxCell id="MHUyAzcI5C19YVDo6uBR-49" value="" style="endArrow=classic;html=1;rounded=0;entryX=0;entryY=0.5;entryDx=0;entryDy=0;exitX=1;exitY=0.5;exitDx=0;exitDy=0;" edge="1" parent="1" source="MHUyAzcI5C19YVDo6uBR-44" target="MHUyAzcI5C19YVDo6uBR-12">
          <mxGeometry width="50" height="50" relative="1" as="geometry">
            <mxPoint x="360" y="500" as="sourcePoint" />
            <mxPoint x="410" y="450" as="targetPoint" />
            <Array as="points">
              <mxPoint x="270" y="370" />
              <mxPoint x="270" y="300" />
            </Array>
          </mxGeometry>
        </mxCell>
        <mxCell id="MHUyAzcI5C19YVDo6uBR-50" value="" style="endArrow=classic;html=1;rounded=0;entryX=0;entryY=0.5;entryDx=0;entryDy=0;exitX=1;exitY=0.5;exitDx=0;exitDy=0;" edge="1" parent="1" source="MHUyAzcI5C19YVDo6uBR-47" target="MHUyAzcI5C19YVDo6uBR-11">
          <mxGeometry width="50" height="50" relative="1" as="geometry">
            <mxPoint x="260" y="550" as="sourcePoint" />
            <mxPoint x="310" y="500" as="targetPoint" />
            <Array as="points">
              <mxPoint x="270" y="220" />
              <mxPoint x="270" y="246" />
            </Array>
          </mxGeometry>
        </mxCell>
        <mxCell id="MHUyAzcI5C19YVDo6uBR-51" value="" style="endArrow=classic;html=1;rounded=0;entryX=0;entryY=0.5;entryDx=0;entryDy=0;exitX=1;exitY=0.5;exitDx=0;exitDy=0;" edge="1" parent="1" source="MHUyAzcI5C19YVDo6uBR-46" target="MHUyAzcI5C19YVDo6uBR-11">
          <mxGeometry width="50" height="50" relative="1" as="geometry">
            <mxPoint x="310" y="550" as="sourcePoint" />
            <mxPoint x="360" y="500" as="targetPoint" />
            <Array as="points">
              <mxPoint x="270" y="145" />
              <mxPoint x="270" y="246" />
            </Array>
          </mxGeometry>
        </mxCell>
        <mxCell id="MHUyAzcI5C19YVDo6uBR-53" value="" style="group" vertex="1" connectable="0" parent="1">
          <mxGeometry x="660" y="100" width="120" height="170" as="geometry" />
        </mxCell>
        <mxCell id="MHUyAzcI5C19YVDo6uBR-13" value="Checkmarx One&lt;div&gt;Multi-Tenant&lt;/div&gt;" style="rounded=1;whiteSpace=wrap;html=1;verticalAlign=top;" vertex="1" parent="MHUyAzcI5C19YVDo6uBR-53">
          <mxGeometry width="120" height="170" as="geometry" />
        </mxCell>
        <mxCell id="MHUyAzcI5C19YVDo6uBR-16" value="Tenant 1" style="rounded=1;whiteSpace=wrap;html=1;" vertex="1" parent="MHUyAzcI5C19YVDo6uBR-53">
          <mxGeometry x="20" y="40" width="80" height="30" as="geometry" />
        </mxCell>
        <mxCell id="MHUyAzcI5C19YVDo6uBR-17" value="Tenant &lt;i&gt;N&lt;/i&gt;" style="rounded=1;whiteSpace=wrap;html=1;" vertex="1" parent="MHUyAzcI5C19YVDo6uBR-53">
          <mxGeometry x="20" y="120" width="80" height="30" as="geometry" />
        </mxCell>
        <mxCell id="MHUyAzcI5C19YVDo6uBR-18" value="..." style="text;strokeColor=none;align=center;fillColor=none;html=1;verticalAlign=middle;whiteSpace=wrap;rounded=0;fontSize=26;" vertex="1" parent="MHUyAzcI5C19YVDo6uBR-53">
          <mxGeometry x="30" y="74" width="60" height="30" as="geometry" />
        </mxCell>
        <mxCell id="MHUyAzcI5C19YVDo6uBR-27" value="" style="endArrow=classic;html=1;rounded=0;exitX=1;exitY=0.5;exitDx=0;exitDy=0;entryX=0;entryY=0.5;entryDx=0;entryDy=0;" edge="1" parent="1" source="MHUyAzcI5C19YVDo6uBR-10" target="MHUyAzcI5C19YVDo6uBR-13">
          <mxGeometry width="50" height="50" relative="1" as="geometry">
            <mxPoint x="480" y="125" as="sourcePoint" />
            <mxPoint x="530" y="75" as="targetPoint" />
          </mxGeometry>
        </mxCell>
        <mxCell id="MHUyAzcI5C19YVDo6uBR-54" value="Firewall" style="rounded=0;whiteSpace=wrap;html=1;rotation=90;" vertex="1" parent="1">
          <mxGeometry x="425" y="265" width="350" height="30" as="geometry" />
        </mxCell>
      </root>
    </mxGraphModel>
  </diagram>
  <diagram id="g-tS4st0xt6gitWztfgs" name="Queue">
    <mxGraphModel dx="1434" dy="844" grid="1" gridSize="10" guides="1" tooltips="1" connect="1" arrows="1" fold="1" page="1" pageScale="1" pageWidth="1100" pageHeight="850" math="0" shadow="0">
      <root>
        <mxCell id="0" />
        <mxCell id="1" parent="0" />
        <mxCell id="IPvgortG0Vs9PYs_62x6-12" value="" style="rounded=0;whiteSpace=wrap;html=1;" parent="1" vertex="1">
          <mxGeometry x="640" y="300" width="120" height="60" as="geometry" />
        </mxCell>
        <mxCell id="IPvgortG0Vs9PYs_62x6-11" value="" style="rounded=0;whiteSpace=wrap;html=1;" parent="1" vertex="1">
          <mxGeometry x="650" y="310" width="120" height="60" as="geometry" />
        </mxCell>
        <mxCell id="aX4rfcUX4-YxXPqQrRG8-9" value="&lt;div&gt;&lt;span style=&quot;background-color: initial;&quot;&gt;&amp;lt;&amp;lt;topic: cx.pr.await.*.*&amp;gt;&amp;gt;&lt;/span&gt;&lt;br&gt;&lt;/div&gt;" style="text;html=1;align=center;verticalAlign=middle;whiteSpace=wrap;rounded=0;" parent="1" vertex="1">
          <mxGeometry x="430" y="654" width="230" height="30" as="geometry" />
        </mxCell>
        <mxCell id="aX4rfcUX4-YxXPqQrRG8-1" value="cx:pr:Scan In&lt;div&gt;&amp;lt;&amp;lt;fanout exchange&amp;gt;&amp;gt;&lt;/div&gt;" style="rounded=0;whiteSpace=wrap;html=1;" parent="1" vertex="1">
          <mxGeometry x="40" y="320" width="120" height="60" as="geometry" />
        </mxCell>
        <mxCell id="aX4rfcUX4-YxXPqQrRG8-2" value="cx:pr:Scan Await&lt;div&gt;&amp;lt;&amp;lt;topic exchange&amp;gt;&amp;gt;&lt;/div&gt;" style="rounded=0;whiteSpace=wrap;html=1;" parent="1" vertex="1">
          <mxGeometry x="310" y="624" width="120" height="60" as="geometry" />
        </mxCell>
        <mxCell id="aX4rfcUX4-YxXPqQrRG8-3" value="cx:pr:Scan Polling Delivery&lt;div&gt;&amp;lt;&amp;lt;topic&amp;gt;&amp;gt;&lt;/div&gt;" style="rounded=0;whiteSpace=wrap;html=1;" parent="1" vertex="1">
          <mxGeometry x="40" y="764" width="150" height="60" as="geometry" />
        </mxCell>
        <mxCell id="aX4rfcUX4-YxXPqQrRG8-4" value="" style="endArrow=classic;html=1;rounded=0;entryX=0;entryY=0.5;entryDx=0;entryDy=0;exitX=0.5;exitY=1;exitDx=0;exitDy=0;" parent="1" source="aX4rfcUX4-YxXPqQrRG8-1" target="aX4rfcUX4-YxXPqQrRG8-2" edge="1">
          <mxGeometry width="50" height="50" relative="1" as="geometry">
            <mxPoint x="160" y="600" as="sourcePoint" />
            <mxPoint x="240" y="660" as="targetPoint" />
            <Array as="points">
              <mxPoint x="100" y="654" />
            </Array>
          </mxGeometry>
        </mxCell>
        <mxCell id="aX4rfcUX4-YxXPqQrRG8-5" value="cx:pr:Polling Scans&lt;div&gt;&amp;lt;&amp;lt;queue&amp;gt;&amp;gt;&lt;/div&gt;" style="rounded=0;whiteSpace=wrap;html=1;" parent="1" vertex="1">
          <mxGeometry x="350" y="764" width="120" height="60" as="geometry" />
        </mxCell>
        <mxCell id="aX4rfcUX4-YxXPqQrRG8-6" value="cx:pr:Awaited Scans&lt;div&gt;&amp;lt;&amp;lt;queue&amp;gt;&amp;gt;&lt;/div&gt;" style="rounded=0;whiteSpace=wrap;html=1;" parent="1" vertex="1">
          <mxGeometry x="660" y="624" width="120" height="60" as="geometry" />
        </mxCell>
        <mxCell id="aX4rfcUX4-YxXPqQrRG8-8" value="&amp;lt;&amp;lt;binding&amp;gt;&amp;gt;" style="text;html=1;align=center;verticalAlign=middle;whiteSpace=wrap;rounded=0;" parent="1" vertex="1">
          <mxGeometry x="100" y="654" width="210" height="30" as="geometry" />
        </mxCell>
        <mxCell id="aX4rfcUX4-YxXPqQrRG8-13" value="" style="endArrow=classic;html=1;rounded=0;exitX=1;exitY=0.5;exitDx=0;exitDy=0;entryX=0;entryY=0.5;entryDx=0;entryDy=0;" parent="1" source="aX4rfcUX4-YxXPqQrRG8-2" target="aX4rfcUX4-YxXPqQrRG8-6" edge="1">
          <mxGeometry width="50" height="50" relative="1" as="geometry">
            <mxPoint x="430" y="654" as="sourcePoint" />
            <mxPoint x="520" y="714" as="targetPoint" />
          </mxGeometry>
        </mxCell>
        <mxCell id="aX4rfcUX4-YxXPqQrRG8-14" value="&amp;lt;&amp;lt;binding&amp;gt;&amp;gt;" style="text;html=1;align=center;verticalAlign=middle;whiteSpace=wrap;rounded=0;" parent="1" vertex="1">
          <mxGeometry x="430" y="624" width="230" height="30" as="geometry" />
        </mxCell>
        <mxCell id="aX4rfcUX4-YxXPqQrRG8-15" value="" style="endArrow=classic;html=1;rounded=0;exitX=0.5;exitY=1;exitDx=0;exitDy=0;entryX=0.5;entryY=0;entryDx=0;entryDy=0;" parent="1" source="aX4rfcUX4-YxXPqQrRG8-6" target="aX4rfcUX4-YxXPqQrRG8-3" edge="1">
          <mxGeometry width="50" height="50" relative="1" as="geometry">
            <mxPoint x="520" y="514" as="sourcePoint" />
            <mxPoint x="570" y="464" as="targetPoint" />
            <Array as="points">
              <mxPoint x="720" y="744" />
              <mxPoint x="115" y="744" />
            </Array>
          </mxGeometry>
        </mxCell>
        <mxCell id="aX4rfcUX4-YxXPqQrRG8-16" value="&amp;lt;&amp;lt;dead-letter binding&amp;gt;&amp;gt;" style="text;html=1;align=center;verticalAlign=middle;whiteSpace=wrap;rounded=0;" parent="1" vertex="1">
          <mxGeometry x="430" y="714" width="230" height="30" as="geometry" />
        </mxCell>
        <mxCell id="aX4rfcUX4-YxXPqQrRG8-18" value="" style="endArrow=classic;html=1;rounded=0;entryX=0;entryY=0.5;entryDx=0;entryDy=0;exitX=1;exitY=0.5;exitDx=0;exitDy=0;" parent="1" source="aX4rfcUX4-YxXPqQrRG8-3" target="aX4rfcUX4-YxXPqQrRG8-5" edge="1">
          <mxGeometry width="50" height="50" relative="1" as="geometry">
            <mxPoint x="520" y="764" as="sourcePoint" />
            <mxPoint x="570" y="714" as="targetPoint" />
          </mxGeometry>
        </mxCell>
        <mxCell id="aX4rfcUX4-YxXPqQrRG8-19" value="&amp;lt;&amp;lt;binding&amp;gt;&amp;gt;" style="text;html=1;align=center;verticalAlign=middle;whiteSpace=wrap;rounded=0;" parent="1" vertex="1">
          <mxGeometry x="170" y="764" width="190" height="30" as="geometry" />
        </mxCell>
        <mxCell id="aX4rfcUX4-YxXPqQrRG8-20" value="&lt;div&gt;&lt;span style=&quot;background-color: initial;&quot;&gt;&amp;lt;&amp;lt;topic: cx.pr.await.*.*&amp;gt;&amp;gt;&lt;/span&gt;&lt;br&gt;&lt;/div&gt;" style="text;html=1;align=center;verticalAlign=middle;whiteSpace=wrap;rounded=0;" parent="1" vertex="1">
          <mxGeometry x="170" y="794" width="190" height="30" as="geometry" />
        </mxCell>
        <mxCell id="aX4rfcUX4-YxXPqQrRG8-21" value="Scan Status Polling&lt;div&gt;Agents&lt;/div&gt;" style="rounded=1;whiteSpace=wrap;html=1;" parent="1" vertex="1">
          <mxGeometry x="900" y="764" width="120" height="60" as="geometry" />
        </mxCell>
        <mxCell id="aX4rfcUX4-YxXPqQrRG8-22" value="" style="endArrow=classic;html=1;rounded=0;entryX=1;entryY=0.5;entryDx=0;entryDy=0;exitX=0;exitY=0.5;exitDx=0;exitDy=0;" parent="1" source="aX4rfcUX4-YxXPqQrRG8-21" target="aX4rfcUX4-YxXPqQrRG8-5" edge="1">
          <mxGeometry width="50" height="50" relative="1" as="geometry">
            <mxPoint x="520" y="764" as="sourcePoint" />
            <mxPoint x="570" y="714" as="targetPoint" />
          </mxGeometry>
        </mxCell>
        <mxCell id="aX4rfcUX4-YxXPqQrRG8-23" value="&amp;lt;&amp;lt;consume&amp;gt;&amp;gt;" style="text;html=1;align=center;verticalAlign=middle;whiteSpace=wrap;rounded=0;" parent="1" vertex="1">
          <mxGeometry x="470" y="764" width="430" height="30" as="geometry" />
        </mxCell>
        <mxCell id="aX4rfcUX4-YxXPqQrRG8-24" value="cx:pr:Scan Feedback&lt;div&gt;&amp;lt;&amp;lt;topic exchange&amp;gt;&amp;gt;&lt;/div&gt;" style="rounded=0;whiteSpace=wrap;html=1;" parent="1" vertex="1">
          <mxGeometry x="310" y="230" width="120" height="60" as="geometry" />
        </mxCell>
        <mxCell id="aX4rfcUX4-YxXPqQrRG8-26" value="&amp;lt;&amp;lt;binding&amp;gt;&amp;gt;" style="text;html=1;align=center;verticalAlign=middle;whiteSpace=wrap;rounded=0;" parent="1" vertex="1">
          <mxGeometry x="130" y="237" width="180" height="30" as="geometry" />
        </mxCell>
        <mxCell id="aX4rfcUX4-YxXPqQrRG8-27" value="cx:pr:PR Feedback&lt;div&gt;&amp;lt;&amp;lt;queue&amp;gt;&amp;gt;&lt;/div&gt;" style="rounded=0;whiteSpace=wrap;html=1;" parent="1" vertex="1">
          <mxGeometry x="660" y="230" width="120" height="60" as="geometry" />
        </mxCell>
        <mxCell id="aX4rfcUX4-YxXPqQrRG8-28" value="" style="endArrow=classic;html=1;rounded=0;entryX=0;entryY=0.5;entryDx=0;entryDy=0;exitX=1;exitY=0.5;exitDx=0;exitDy=0;" parent="1" source="aX4rfcUX4-YxXPqQrRG8-24" target="aX4rfcUX4-YxXPqQrRG8-27" edge="1">
          <mxGeometry width="50" height="50" relative="1" as="geometry">
            <mxPoint x="670" y="190" as="sourcePoint" />
            <mxPoint x="720" y="140" as="targetPoint" />
          </mxGeometry>
        </mxCell>
        <mxCell id="aX4rfcUX4-YxXPqQrRG8-29" value="&amp;lt;&amp;lt;binding&amp;gt;&amp;gt;" style="text;html=1;align=center;verticalAlign=middle;whiteSpace=wrap;rounded=0;" parent="1" vertex="1">
          <mxGeometry x="430" y="230" width="230" height="30" as="geometry" />
        </mxCell>
        <mxCell id="aX4rfcUX4-YxXPqQrRG8-30" value="&lt;div&gt;&lt;span style=&quot;background-color: initial;&quot;&gt;&amp;lt;&amp;lt;topic: cx.pr.feedback.pull-request.*&amp;gt;&amp;gt;&lt;/span&gt;&lt;br&gt;&lt;/div&gt;" style="text;html=1;align=center;verticalAlign=middle;whiteSpace=wrap;rounded=0;" parent="1" vertex="1">
          <mxGeometry x="430" y="260" width="230" height="30" as="geometry" />
        </mxCell>
        <mxCell id="aX4rfcUX4-YxXPqQrRG8-31" value="PR Feedback&lt;div&gt;Agents&lt;/div&gt;" style="rounded=1;whiteSpace=wrap;html=1;" parent="1" vertex="1">
          <mxGeometry x="900" y="230" width="120" height="60" as="geometry" />
        </mxCell>
        <mxCell id="aX4rfcUX4-YxXPqQrRG8-32" value="&amp;lt;&amp;lt;consume&amp;gt;&amp;gt;" style="text;html=1;align=center;verticalAlign=middle;whiteSpace=wrap;rounded=0;" parent="1" vertex="1">
          <mxGeometry x="780" y="237" width="120" height="30" as="geometry" />
        </mxCell>
        <mxCell id="aX4rfcUX4-YxXPqQrRG8-33" value="" style="endArrow=classic;html=1;rounded=0;entryX=1;entryY=0.5;entryDx=0;entryDy=0;exitX=0;exitY=0.5;exitDx=0;exitDy=0;" parent="1" source="aX4rfcUX4-YxXPqQrRG8-31" target="aX4rfcUX4-YxXPqQrRG8-27" edge="1">
          <mxGeometry width="50" height="50" relative="1" as="geometry">
            <mxPoint x="940" y="400" as="sourcePoint" />
            <mxPoint x="990" y="350" as="targetPoint" />
          </mxGeometry>
        </mxCell>
        <mxCell id="EWg68q9pLTNdiaHDaH-_-1" value="cx:pr:Scan Annotate&lt;div&gt;&amp;lt;&amp;lt;topic exchange&amp;gt;&amp;gt;&lt;/div&gt;" style="rounded=0;whiteSpace=wrap;html=1;" parent="1" vertex="1">
          <mxGeometry x="310" y="150" width="120" height="60" as="geometry" />
        </mxCell>
        <mxCell id="EWg68q9pLTNdiaHDaH-_-2" value="cx:pr:PR Annotating&lt;div&gt;&amp;lt;&amp;lt;queue&amp;gt;&amp;gt;&lt;/div&gt;" style="rounded=0;whiteSpace=wrap;html=1;" parent="1" vertex="1">
          <mxGeometry x="660" y="150" width="120" height="60" as="geometry" />
        </mxCell>
        <mxCell id="EWg68q9pLTNdiaHDaH-_-3" value="" style="endArrow=classic;html=1;rounded=0;entryX=0;entryY=0.5;entryDx=0;entryDy=0;exitX=1;exitY=0.5;exitDx=0;exitDy=0;" parent="1" source="EWg68q9pLTNdiaHDaH-_-1" target="EWg68q9pLTNdiaHDaH-_-2" edge="1">
          <mxGeometry width="50" height="50" relative="1" as="geometry">
            <mxPoint x="180" y="140" as="sourcePoint" />
            <mxPoint x="230" y="90" as="targetPoint" />
          </mxGeometry>
        </mxCell>
        <mxCell id="EWg68q9pLTNdiaHDaH-_-4" value="" style="endArrow=classic;html=1;rounded=0;exitX=0.25;exitY=0;exitDx=0;exitDy=0;entryX=0;entryY=0.5;entryDx=0;entryDy=0;" parent="1" source="aX4rfcUX4-YxXPqQrRG8-1" target="EWg68q9pLTNdiaHDaH-_-1" edge="1">
          <mxGeometry width="50" height="50" relative="1" as="geometry">
            <mxPoint x="150" y="300" as="sourcePoint" />
            <mxPoint x="200" y="250" as="targetPoint" />
            <Array as="points">
              <mxPoint x="70" y="180" />
            </Array>
          </mxGeometry>
        </mxCell>
        <mxCell id="EWg68q9pLTNdiaHDaH-_-5" value="&amp;lt;&amp;lt;binding&amp;gt;&amp;gt;" style="text;html=1;align=center;verticalAlign=middle;whiteSpace=wrap;rounded=0;" parent="1" vertex="1">
          <mxGeometry x="70" y="155" width="240" height="30" as="geometry" />
        </mxCell>
        <mxCell id="EWg68q9pLTNdiaHDaH-_-6" value="&amp;lt;&amp;lt;binding&amp;gt;&amp;gt;" style="text;html=1;align=center;verticalAlign=middle;whiteSpace=wrap;rounded=0;" parent="1" vertex="1">
          <mxGeometry x="430" y="155" width="230" height="30" as="geometry" />
        </mxCell>
        <mxCell id="EWg68q9pLTNdiaHDaH-_-7" value="&lt;div&gt;&lt;span style=&quot;background-color: initial;&quot;&gt;&amp;lt;&amp;lt;topic: cx.pr.annotate.pull-request.*&amp;gt;&amp;gt;&lt;/span&gt;&lt;br&gt;&lt;/div&gt;" style="text;html=1;align=center;verticalAlign=middle;whiteSpace=wrap;rounded=0;" parent="1" vertex="1">
          <mxGeometry x="430" y="180" width="230" height="30" as="geometry" />
        </mxCell>
        <mxCell id="EWg68q9pLTNdiaHDaH-_-8" value="PR Annotate&lt;div&gt;Agents&lt;/div&gt;" style="rounded=1;whiteSpace=wrap;html=1;" parent="1" vertex="1">
          <mxGeometry x="900" y="150" width="120" height="60" as="geometry" />
        </mxCell>
        <mxCell id="EWg68q9pLTNdiaHDaH-_-9" value="" style="endArrow=classic;html=1;rounded=0;entryX=1;entryY=0.5;entryDx=0;entryDy=0;exitX=0;exitY=0.5;exitDx=0;exitDy=0;" parent="1" source="EWg68q9pLTNdiaHDaH-_-8" target="EWg68q9pLTNdiaHDaH-_-2" edge="1">
          <mxGeometry width="50" height="50" relative="1" as="geometry">
            <mxPoint x="900" y="170" as="sourcePoint" />
            <mxPoint x="780" y="170" as="targetPoint" />
          </mxGeometry>
        </mxCell>
        <mxCell id="EWg68q9pLTNdiaHDaH-_-10" value="&amp;lt;&amp;lt;consume&amp;gt;&amp;gt;" style="text;html=1;align=center;verticalAlign=middle;whiteSpace=wrap;rounded=0;" parent="1" vertex="1">
          <mxGeometry x="780" y="155" width="120" height="30" as="geometry" />
        </mxCell>
        <mxCell id="IPvgortG0Vs9PYs_62x6-1" value="cx:res:SCA Resolver Scan In&lt;div&gt;&amp;lt;&amp;lt;topic exchange&amp;gt;&amp;gt;&lt;/div&gt;" style="rounded=0;whiteSpace=wrap;html=1;" parent="1" vertex="1">
          <mxGeometry x="280" y="320" width="180" height="60" as="geometry" />
        </mxCell>
        <mxCell id="IPvgortG0Vs9PYs_62x6-3" value="cx:res:Resolver Req:*&lt;div&gt;&amp;lt;&amp;lt;queue&amp;gt;&amp;gt;&lt;/div&gt;" style="rounded=0;whiteSpace=wrap;html=1;" parent="1" vertex="1">
          <mxGeometry x="660" y="320" width="120" height="60" as="geometry" />
        </mxCell>
        <mxCell id="IPvgortG0Vs9PYs_62x6-4" value="SCA Resolver&lt;div&gt;Distributed Agents&lt;/div&gt;" style="rounded=1;whiteSpace=wrap;html=1;" parent="1" vertex="1">
          <mxGeometry x="900" y="320" width="120" height="60" as="geometry" />
        </mxCell>
        <mxCell id="IPvgortG0Vs9PYs_62x6-5" value="&amp;lt;&amp;lt;consume&amp;gt;&amp;gt;" style="text;html=1;align=center;verticalAlign=middle;whiteSpace=wrap;rounded=0;" parent="1" vertex="1">
          <mxGeometry x="780" y="326" width="120" height="30" as="geometry" />
        </mxCell>
        <mxCell id="IPvgortG0Vs9PYs_62x6-6" value="" style="endArrow=classic;html=1;rounded=0;exitX=0;exitY=0.5;exitDx=0;exitDy=0;" parent="1" source="IPvgortG0Vs9PYs_62x6-4" edge="1">
          <mxGeometry width="50" height="50" relative="1" as="geometry">
            <mxPoint x="940" y="490" as="sourcePoint" />
            <mxPoint x="780" y="350" as="targetPoint" />
          </mxGeometry>
        </mxCell>
        <mxCell id="IPvgortG0Vs9PYs_62x6-7" value="" style="endArrow=classic;html=1;rounded=0;entryX=0;entryY=0.5;entryDx=0;entryDy=0;exitX=1;exitY=0.5;exitDx=0;exitDy=0;" parent="1" source="aX4rfcUX4-YxXPqQrRG8-1" target="IPvgortG0Vs9PYs_62x6-1" edge="1">
          <mxGeometry width="50" height="50" relative="1" as="geometry">
            <mxPoint x="-10" y="500" as="sourcePoint" />
            <mxPoint x="40" y="450" as="targetPoint" />
          </mxGeometry>
        </mxCell>
        <mxCell id="IPvgortG0Vs9PYs_62x6-8" value="" style="endArrow=classic;html=1;rounded=0;entryX=0;entryY=0.5;entryDx=0;entryDy=0;exitX=1;exitY=0.5;exitDx=0;exitDy=0;" parent="1" source="IPvgortG0Vs9PYs_62x6-1" target="IPvgortG0Vs9PYs_62x6-3" edge="1">
          <mxGeometry width="50" height="50" relative="1" as="geometry">
            <mxPoint x="500" y="380" as="sourcePoint" />
            <mxPoint x="550" y="330" as="targetPoint" />
          </mxGeometry>
        </mxCell>
        <mxCell id="IPvgortG0Vs9PYs_62x6-9" value="&amp;lt;&amp;lt;binding&amp;gt;&amp;gt;" style="text;html=1;align=center;verticalAlign=middle;whiteSpace=wrap;rounded=0;" parent="1" vertex="1">
          <mxGeometry x="435" y="320" width="230" height="30" as="geometry" />
        </mxCell>
        <mxCell id="IPvgortG0Vs9PYs_62x6-10" value="&lt;div&gt;&lt;span style=&quot;background-color: initial;&quot;&gt;&amp;lt;&amp;lt;topic: cx.res.exec.sca-resolver.run-scan.&amp;lt;tag&amp;gt;.#&amp;gt;&amp;gt;&lt;/span&gt;&lt;br&gt;&lt;/div&gt;" style="text;html=1;align=center;verticalAlign=middle;whiteSpace=wrap;rounded=0;" parent="1" vertex="1">
          <mxGeometry x="460" y="350" width="180" height="30" as="geometry" />
        </mxCell>
        <mxCell id="IPvgortG0Vs9PYs_62x6-13" value="SCA Resolver Result Agents" style="rounded=1;whiteSpace=wrap;html=1;" parent="1" vertex="1">
          <mxGeometry x="900" y="531" width="120" height="60" as="geometry" />
        </mxCell>
        <mxCell id="IPvgortG0Vs9PYs_62x6-15" value="&amp;lt;&amp;lt;consume&amp;gt;&amp;gt;" style="text;html=1;align=center;verticalAlign=middle;whiteSpace=wrap;rounded=0;" parent="1" vertex="1">
          <mxGeometry x="795" y="537" width="90" height="30" as="geometry" />
        </mxCell>
        <mxCell id="yxdHAlz6z0pexMyXHiWV-1" value="cx:res:Finished Resolver Scans&lt;div&gt;&amp;lt;&amp;lt;queue&amp;gt;&amp;gt;&lt;/div&gt;" style="rounded=0;whiteSpace=wrap;html=1;" parent="1" vertex="1">
          <mxGeometry x="602" y="531" width="180" height="60" as="geometry" />
        </mxCell>
        <mxCell id="yxdHAlz6z0pexMyXHiWV-2" value="" style="endArrow=classic;html=1;rounded=0;exitX=0;exitY=0.5;exitDx=0;exitDy=0;entryX=1;entryY=0.5;entryDx=0;entryDy=0;" parent="1" source="IPvgortG0Vs9PYs_62x6-13" target="yxdHAlz6z0pexMyXHiWV-1" edge="1">
          <mxGeometry width="50" height="50" relative="1" as="geometry">
            <mxPoint x="910" y="481" as="sourcePoint" />
            <mxPoint x="790" y="481" as="targetPoint" />
          </mxGeometry>
        </mxCell>
        <mxCell id="yxdHAlz6z0pexMyXHiWV-3" value="" style="endArrow=classic;html=1;rounded=0;exitX=0.25;exitY=1;exitDx=0;exitDy=0;entryX=0;entryY=0.5;entryDx=0;entryDy=0;" parent="1" source="IPvgortG0Vs9PYs_62x6-1" target="yxdHAlz6z0pexMyXHiWV-1" edge="1">
          <mxGeometry width="50" height="50" relative="1" as="geometry">
            <mxPoint x="430" y="450" as="sourcePoint" />
            <mxPoint x="480" y="400" as="targetPoint" />
            <Array as="points">
              <mxPoint x="325" y="561" />
            </Array>
          </mxGeometry>
        </mxCell>
        <mxCell id="N_ZC2enR7ewi8laEVAVZ-1" value="cx:res:SCA Resolver DLX&lt;div&gt;&amp;lt;&amp;lt;topic exchange&amp;gt;&amp;gt;&lt;/div&gt;" style="rounded=0;whiteSpace=wrap;html=1;" vertex="1" parent="1">
          <mxGeometry x="338" y="445" width="180" height="60" as="geometry" />
        </mxCell>
        <mxCell id="N_ZC2enR7ewi8laEVAVZ-2" value="" style="endArrow=classic;html=1;rounded=0;entryX=0.5;entryY=0;entryDx=0;entryDy=0;exitX=0.5;exitY=1;exitDx=0;exitDy=0;" edge="1" parent="1" source="IPvgortG0Vs9PYs_62x6-3" target="N_ZC2enR7ewi8laEVAVZ-1">
          <mxGeometry width="50" height="50" relative="1" as="geometry">
            <mxPoint x="240" y="510" as="sourcePoint" />
            <mxPoint x="290" y="460" as="targetPoint" />
            <Array as="points">
              <mxPoint x="720" y="400" />
              <mxPoint x="428" y="400" />
            </Array>
          </mxGeometry>
        </mxCell>
        <mxCell id="N_ZC2enR7ewi8laEVAVZ-3" value="SCA Resolver Scan Timeout Agents" style="rounded=1;whiteSpace=wrap;html=1;" vertex="1" parent="1">
          <mxGeometry x="900" y="445" width="120" height="60" as="geometry" />
        </mxCell>
        <mxCell id="N_ZC2enR7ewi8laEVAVZ-4" value="cx:res:Resolver Timeout&lt;div&gt;&amp;lt;&amp;lt;queue&amp;gt;&amp;gt;&lt;/div&gt;" style="rounded=0;whiteSpace=wrap;html=1;" vertex="1" parent="1">
          <mxGeometry x="653" y="445" width="150" height="60" as="geometry" />
        </mxCell>
        <mxCell id="N_ZC2enR7ewi8laEVAVZ-5" value="" style="endArrow=classic;html=1;rounded=0;exitX=1;exitY=0.5;exitDx=0;exitDy=0;entryX=0;entryY=0.5;entryDx=0;entryDy=0;" edge="1" parent="1" source="N_ZC2enR7ewi8laEVAVZ-1" target="N_ZC2enR7ewi8laEVAVZ-4">
          <mxGeometry width="50" height="50" relative="1" as="geometry">
            <mxPoint x="600" y="500" as="sourcePoint" />
            <mxPoint x="650" y="450" as="targetPoint" />
          </mxGeometry>
        </mxCell>
        <mxCell id="N_ZC2enR7ewi8laEVAVZ-6" value="&lt;div&gt;&lt;span style=&quot;background-color: initial;&quot;&gt;&amp;lt;&amp;lt;topic: cx.res.#&amp;gt;&amp;gt;&lt;/span&gt;&lt;br&gt;&lt;/div&gt;" style="text;html=1;align=center;verticalAlign=middle;whiteSpace=wrap;rounded=0;" vertex="1" parent="1">
          <mxGeometry x="518" y="445" width="132" height="30" as="geometry" />
        </mxCell>
        <mxCell id="N_ZC2enR7ewi8laEVAVZ-7" value="" style="endArrow=classic;html=1;rounded=0;entryX=1;entryY=0.5;entryDx=0;entryDy=0;exitX=0;exitY=0.5;exitDx=0;exitDy=0;" edge="1" parent="1" source="N_ZC2enR7ewi8laEVAVZ-3" target="N_ZC2enR7ewi8laEVAVZ-4">
          <mxGeometry width="50" height="50" relative="1" as="geometry">
            <mxPoint x="850" y="460" as="sourcePoint" />
            <mxPoint x="900" y="410" as="targetPoint" />
          </mxGeometry>
        </mxCell>
        <mxCell id="N_ZC2enR7ewi8laEVAVZ-8" value="&amp;lt;&amp;lt;consume&amp;gt;&amp;gt;" style="text;html=1;align=center;verticalAlign=middle;whiteSpace=wrap;rounded=0;" vertex="1" parent="1">
          <mxGeometry x="800" y="450" width="100" height="30" as="geometry" />
        </mxCell>
        <mxCell id="N_ZC2enR7ewi8laEVAVZ-9" value="&amp;lt;&amp;lt;dead-letter binding&amp;gt;&amp;gt;" style="text;html=1;align=center;verticalAlign=middle;whiteSpace=wrap;rounded=0;" vertex="1" parent="1">
          <mxGeometry x="430" y="395" width="290" height="30" as="geometry" />
        </mxCell>
        <mxCell id="N_ZC2enR7ewi8laEVAVZ-10" value="&lt;div&gt;&lt;span style=&quot;background-color: initial;&quot;&gt;&amp;lt;&amp;lt;topic: cx.res.exec.sca-resolver.scan-complete.#&amp;gt;&amp;gt;&lt;/span&gt;&lt;br&gt;&lt;/div&gt;" style="text;html=1;align=center;verticalAlign=middle;whiteSpace=wrap;rounded=0;" vertex="1" parent="1">
          <mxGeometry x="312" y="561" width="290" height="30" as="geometry" />
        </mxCell>
        <mxCell id="N_ZC2enR7ewi8laEVAVZ-12" value="" style="endArrow=classic;html=1;rounded=0;exitX=0.75;exitY=0;exitDx=0;exitDy=0;entryX=0;entryY=0.5;entryDx=0;entryDy=0;" edge="1" parent="1" source="aX4rfcUX4-YxXPqQrRG8-1" target="aX4rfcUX4-YxXPqQrRG8-24">
          <mxGeometry width="50" height="50" relative="1" as="geometry">
            <mxPoint x="170" y="290" as="sourcePoint" />
            <mxPoint x="220" y="240" as="targetPoint" />
            <Array as="points">
              <mxPoint x="130" y="260" />
            </Array>
          </mxGeometry>
        </mxCell>
      </root>
    </mxGraphModel>
  </diagram>
  <diagram id="aHrucQQ73-mD5PA0tiYg" name="HA">
    <mxGraphModel dx="1434" dy="844" grid="1" gridSize="10" guides="1" tooltips="1" connect="1" arrows="1" fold="1" page="1" pageScale="1" pageWidth="1100" pageHeight="850" math="0" shadow="0">
      <root>
        <mxCell id="0" />
        <mxCell id="1" parent="0" />
        <mxCell id="WnMsDtgQUvUzx6BjkXDZ-1" value="Load Balancer" style="rounded=0;whiteSpace=wrap;html=1;" parent="1" vertex="1">
          <mxGeometry x="150" y="250" width="120" height="60" as="geometry" />
        </mxCell>
        <mxCell id="WnMsDtgQUvUzx6BjkXDZ-2" value="CxOneFlow&lt;div&gt;Instance&lt;/div&gt;" style="rounded=0;whiteSpace=wrap;html=1;" parent="1" vertex="1">
          <mxGeometry x="410" y="330" width="120" height="60" as="geometry" />
        </mxCell>
        <mxCell id="WnMsDtgQUvUzx6BjkXDZ-3" value="CxOneFlow&lt;div&gt;Instance&lt;/div&gt;" style="rounded=0;whiteSpace=wrap;html=1;" parent="1" vertex="1">
          <mxGeometry x="410" y="250" width="120" height="60" as="geometry" />
        </mxCell>
        <mxCell id="WnMsDtgQUvUzx6BjkXDZ-4" value="CxOneFlow&lt;div&gt;Instance&lt;/div&gt;" style="rounded=0;whiteSpace=wrap;html=1;" parent="1" vertex="1">
          <mxGeometry x="410" y="170" width="120" height="60" as="geometry" />
        </mxCell>
        <mxCell id="WnMsDtgQUvUzx6BjkXDZ-5" value="" style="endArrow=classic;html=1;rounded=0;entryX=0;entryY=0.5;entryDx=0;entryDy=0;" parent="1" target="WnMsDtgQUvUzx6BjkXDZ-2" edge="1">
          <mxGeometry width="50" height="50" relative="1" as="geometry">
            <mxPoint x="270" y="280" as="sourcePoint" />
            <mxPoint x="570" y="410" as="targetPoint" />
          </mxGeometry>
        </mxCell>
        <mxCell id="WnMsDtgQUvUzx6BjkXDZ-6" value="" style="endArrow=classic;html=1;rounded=0;entryX=0;entryY=0.5;entryDx=0;entryDy=0;exitX=1;exitY=0.5;exitDx=0;exitDy=0;" parent="1" source="WnMsDtgQUvUzx6BjkXDZ-1" target="WnMsDtgQUvUzx6BjkXDZ-3" edge="1">
          <mxGeometry width="50" height="50" relative="1" as="geometry">
            <mxPoint x="280" y="290" as="sourcePoint" />
            <mxPoint x="420" y="370" as="targetPoint" />
          </mxGeometry>
        </mxCell>
        <mxCell id="WnMsDtgQUvUzx6BjkXDZ-7" value="" style="endArrow=classic;html=1;rounded=0;entryX=0;entryY=0.5;entryDx=0;entryDy=0;exitX=1;exitY=0.5;exitDx=0;exitDy=0;" parent="1" source="WnMsDtgQUvUzx6BjkXDZ-1" target="WnMsDtgQUvUzx6BjkXDZ-4" edge="1">
          <mxGeometry width="50" height="50" relative="1" as="geometry">
            <mxPoint x="290" y="300" as="sourcePoint" />
            <mxPoint x="430" y="380" as="targetPoint" />
          </mxGeometry>
        </mxCell>
        <mxCell id="WnMsDtgQUvUzx6BjkXDZ-8" value="Clustered&lt;div&gt;MQ&lt;/div&gt;&lt;div&gt;(amqp)&lt;/div&gt;" style="rounded=0;whiteSpace=wrap;html=1;" parent="1" vertex="1">
          <mxGeometry x="670" y="180.93" width="120" height="198.13" as="geometry" />
        </mxCell>
        <mxCell id="WnMsDtgQUvUzx6BjkXDZ-9" value="" style="endArrow=classic;html=1;rounded=0;exitX=1;exitY=0.5;exitDx=0;exitDy=0;entryX=0;entryY=0.75;entryDx=0;entryDy=0;" parent="1" source="WnMsDtgQUvUzx6BjkXDZ-2" target="WnMsDtgQUvUzx6BjkXDZ-8" edge="1">
          <mxGeometry width="50" height="50" relative="1" as="geometry">
            <mxPoint x="210" y="510" as="sourcePoint" />
            <mxPoint x="610" y="410" as="targetPoint" />
          </mxGeometry>
        </mxCell>
        <mxCell id="WnMsDtgQUvUzx6BjkXDZ-10" value="" style="endArrow=classic;html=1;rounded=0;entryX=0;entryY=0.5;entryDx=0;entryDy=0;exitX=1;exitY=0.5;exitDx=0;exitDy=0;" parent="1" source="WnMsDtgQUvUzx6BjkXDZ-3" target="WnMsDtgQUvUzx6BjkXDZ-8" edge="1">
          <mxGeometry width="50" height="50" relative="1" as="geometry">
            <mxPoint x="570" y="520" as="sourcePoint" />
            <mxPoint x="620" y="470" as="targetPoint" />
          </mxGeometry>
        </mxCell>
        <mxCell id="WnMsDtgQUvUzx6BjkXDZ-11" value="" style="endArrow=classic;html=1;rounded=0;entryX=0;entryY=0.25;entryDx=0;entryDy=0;exitX=1;exitY=0.5;exitDx=0;exitDy=0;" parent="1" source="WnMsDtgQUvUzx6BjkXDZ-4" target="WnMsDtgQUvUzx6BjkXDZ-8" edge="1">
          <mxGeometry width="50" height="50" relative="1" as="geometry">
            <mxPoint x="360" y="480" as="sourcePoint" />
            <mxPoint x="410" y="430" as="targetPoint" />
          </mxGeometry>
        </mxCell>
      </root>
    </mxGraphModel>
  </diagram>
  <diagram id="f4gA70AQnl4Ed9MQcka2" name="Recovery Algorithm">
    <mxGraphModel dx="1434" dy="844" grid="1" gridSize="10" guides="1" tooltips="1" connect="1" arrows="1" fold="1" page="1" pageScale="1" pageWidth="1100" pageHeight="850" math="0" shadow="0">
      <root>
        <mxCell id="0" />
        <mxCell id="1" parent="0" />
        <mxCell id="REIfC4HqUKp6-54uijNl-1" value="Message Enqueued" style="rounded=1;whiteSpace=wrap;html=1;" vertex="1" parent="1">
          <mxGeometry x="70" y="140" width="120" height="60" as="geometry" />
        </mxCell>
        <mxCell id="REIfC4HqUKp6-54uijNl-2" value="Agent receives message, executes workflow" style="rounded=1;whiteSpace=wrap;html=1;" vertex="1" parent="1">
          <mxGeometry x="310" y="140" width="120" height="60" as="geometry" />
        </mxCell>
        <mxCell id="REIfC4HqUKp6-54uijNl-3" value="Message placed back in the queue" style="rounded=1;whiteSpace=wrap;html=1;" vertex="1" parent="1">
          <mxGeometry x="550" y="140" width="120" height="60" as="geometry" />
        </mxCell>
        <mxCell id="REIfC4HqUKp6-54uijNl-4" value="Agent ends abnormally?" style="rhombus;whiteSpace=wrap;html=1;" vertex="1" parent="1">
          <mxGeometry x="305" y="260" width="130" height="100" as="geometry" />
        </mxCell>
        <mxCell id="REIfC4HqUKp6-54uijNl-5" value="" style="endArrow=classic;html=1;rounded=0;exitX=1;exitY=0.5;exitDx=0;exitDy=0;entryX=0.5;entryY=1;entryDx=0;entryDy=0;" edge="1" parent="1" source="REIfC4HqUKp6-54uijNl-4" target="REIfC4HqUKp6-54uijNl-3">
          <mxGeometry width="50" height="50" relative="1" as="geometry">
            <mxPoint x="550" y="390" as="sourcePoint" />
            <mxPoint x="600" y="340" as="targetPoint" />
            <Array as="points">
              <mxPoint x="610" y="310" />
            </Array>
          </mxGeometry>
        </mxCell>
        <mxCell id="REIfC4HqUKp6-54uijNl-6" value="Yes" style="text;html=1;align=center;verticalAlign=middle;whiteSpace=wrap;rounded=0;" vertex="1" parent="1">
          <mxGeometry x="430" y="290" width="60" height="30" as="geometry" />
        </mxCell>
        <mxCell id="REIfC4HqUKp6-54uijNl-7" value="" style="endArrow=classic;html=1;rounded=0;entryX=0.5;entryY=0;entryDx=0;entryDy=0;exitX=0.5;exitY=1;exitDx=0;exitDy=0;" edge="1" parent="1" source="REIfC4HqUKp6-54uijNl-2" target="REIfC4HqUKp6-54uijNl-4">
          <mxGeometry width="50" height="50" relative="1" as="geometry">
            <mxPoint x="250" y="300" as="sourcePoint" />
            <mxPoint x="300" y="250" as="targetPoint" />
          </mxGeometry>
        </mxCell>
        <mxCell id="REIfC4HqUKp6-54uijNl-8" value="Workflow error?" style="rhombus;whiteSpace=wrap;html=1;" vertex="1" parent="1">
          <mxGeometry x="305" y="410" width="130" height="100" as="geometry" />
        </mxCell>
        <mxCell id="REIfC4HqUKp6-54uijNl-9" value="" style="endArrow=classic;html=1;rounded=0;entryX=0.5;entryY=0;entryDx=0;entryDy=0;exitX=0.5;exitY=1;exitDx=0;exitDy=0;" edge="1" parent="1" source="REIfC4HqUKp6-54uijNl-4" target="REIfC4HqUKp6-54uijNl-8">
          <mxGeometry width="50" height="50" relative="1" as="geometry">
            <mxPoint x="160" y="470" as="sourcePoint" />
            <mxPoint x="210" y="420" as="targetPoint" />
          </mxGeometry>
        </mxCell>
        <mxCell id="REIfC4HqUKp6-54uijNl-10" value="" style="endArrow=classic;html=1;rounded=0;entryX=0;entryY=0.5;entryDx=0;entryDy=0;exitX=1;exitY=0.5;exitDx=0;exitDy=0;" edge="1" parent="1" source="REIfC4HqUKp6-54uijNl-8" target="REIfC4HqUKp6-54uijNl-11">
          <mxGeometry width="50" height="50" relative="1" as="geometry">
            <mxPoint x="490" y="490" as="sourcePoint" />
            <mxPoint x="540" y="440" as="targetPoint" />
          </mxGeometry>
        </mxCell>
        <mxCell id="REIfC4HqUKp6-54uijNl-11" value="Agent &quot;nack&quot; message" style="rounded=1;whiteSpace=wrap;html=1;" vertex="1" parent="1">
          <mxGeometry x="550" y="430" width="120" height="60" as="geometry" />
        </mxCell>
        <mxCell id="REIfC4HqUKp6-54uijNl-12" value="" style="endArrow=classic;html=1;rounded=0;entryX=0.5;entryY=1;entryDx=0;entryDy=0;exitX=0.5;exitY=0;exitDx=0;exitDy=0;" edge="1" parent="1" source="REIfC4HqUKp6-54uijNl-11" target="REIfC4HqUKp6-54uijNl-3">
          <mxGeometry width="50" height="50" relative="1" as="geometry">
            <mxPoint x="540" y="640" as="sourcePoint" />
            <mxPoint x="590" y="590" as="targetPoint" />
          </mxGeometry>
        </mxCell>
        <mxCell id="REIfC4HqUKp6-54uijNl-13" value="Yes" style="text;html=1;align=center;verticalAlign=middle;whiteSpace=wrap;rounded=0;" vertex="1" parent="1">
          <mxGeometry x="430" y="440" width="60" height="30" as="geometry" />
        </mxCell>
        <mxCell id="REIfC4HqUKp6-54uijNl-14" value="" style="endArrow=classic;html=1;rounded=0;entryX=0;entryY=0.5;entryDx=0;entryDy=0;exitX=1;exitY=0.5;exitDx=0;exitDy=0;" edge="1" parent="1" source="REIfC4HqUKp6-54uijNl-1" target="REIfC4HqUKp6-54uijNl-2">
          <mxGeometry width="50" height="50" relative="1" as="geometry">
            <mxPoint x="140" y="310" as="sourcePoint" />
            <mxPoint x="190" y="260" as="targetPoint" />
          </mxGeometry>
        </mxCell>
        <mxCell id="REIfC4HqUKp6-54uijNl-15" value="" style="endArrow=classic;html=1;rounded=0;entryX=0.5;entryY=0;entryDx=0;entryDy=0;exitX=0.5;exitY=0;exitDx=0;exitDy=0;" edge="1" parent="1" source="REIfC4HqUKp6-54uijNl-3" target="REIfC4HqUKp6-54uijNl-2">
          <mxGeometry width="50" height="50" relative="1" as="geometry">
            <mxPoint x="780" y="170" as="sourcePoint" />
            <mxPoint x="830" y="120" as="targetPoint" />
            <Array as="points">
              <mxPoint x="610" y="60" />
              <mxPoint x="370" y="60" />
            </Array>
          </mxGeometry>
        </mxCell>
        <mxCell id="REIfC4HqUKp6-54uijNl-16" value="No" style="text;html=1;align=center;verticalAlign=middle;whiteSpace=wrap;rounded=0;" vertex="1" parent="1">
          <mxGeometry x="370" y="360" width="60" height="30" as="geometry" />
        </mxCell>
        <mxCell id="REIfC4HqUKp6-54uijNl-17" value="Agent &quot;ack&quot; message" style="rounded=1;whiteSpace=wrap;html=1;" vertex="1" parent="1">
          <mxGeometry x="310" y="560" width="120" height="60" as="geometry" />
        </mxCell>
        <mxCell id="REIfC4HqUKp6-54uijNl-18" value="Message removed from queue" style="ellipse;whiteSpace=wrap;html=1;" vertex="1" parent="1">
          <mxGeometry x="275" y="680" width="190" height="50" as="geometry" />
        </mxCell>
        <mxCell id="REIfC4HqUKp6-54uijNl-19" value="" style="endArrow=classic;html=1;rounded=0;entryX=0.5;entryY=0;entryDx=0;entryDy=0;exitX=0.5;exitY=1;exitDx=0;exitDy=0;" edge="1" parent="1" source="REIfC4HqUKp6-54uijNl-8" target="REIfC4HqUKp6-54uijNl-17">
          <mxGeometry width="50" height="50" relative="1" as="geometry">
            <mxPoint x="80" y="530" as="sourcePoint" />
            <mxPoint x="130" y="480" as="targetPoint" />
          </mxGeometry>
        </mxCell>
        <mxCell id="REIfC4HqUKp6-54uijNl-20" value="" style="endArrow=classic;html=1;rounded=0;entryX=0.5;entryY=0;entryDx=0;entryDy=0;exitX=0.5;exitY=1;exitDx=0;exitDy=0;" edge="1" parent="1" source="REIfC4HqUKp6-54uijNl-17" target="REIfC4HqUKp6-54uijNl-18">
          <mxGeometry width="50" height="50" relative="1" as="geometry">
            <mxPoint x="120" y="670" as="sourcePoint" />
            <mxPoint x="170" y="620" as="targetPoint" />
          </mxGeometry>
        </mxCell>
        <mxCell id="REIfC4HqUKp6-54uijNl-21" value="No" style="text;html=1;align=center;verticalAlign=middle;whiteSpace=wrap;rounded=0;" vertex="1" parent="1">
          <mxGeometry x="370" y="510" width="60" height="30" as="geometry" />
        </mxCell>
      </root>
    </mxGraphModel>
  </diagram>
  <diagram id="qPtX9Te8cByR73XGlnXl" name="Polling Algorithm">
    <mxGraphModel dx="1434" dy="844" grid="1" gridSize="10" guides="1" tooltips="1" connect="1" arrows="1" fold="1" page="1" pageScale="1" pageWidth="1100" pageHeight="850" math="0" shadow="0">
      <root>
        <mxCell id="0" />
        <mxCell id="1" parent="0" />
        <mxCell id="2iDB4tE-BqQWnQyovVJ9-1" value="Scan monitoring message enqueued with initial timeout" style="rounded=1;whiteSpace=wrap;html=1;" parent="1" vertex="1">
          <mxGeometry x="70" y="170" width="120" height="60" as="geometry" />
        </mxCell>
        <mxCell id="2iDB4tE-BqQWnQyovVJ9-2" value="Message is in the Await queue" style="rounded=1;whiteSpace=wrap;html=1;" parent="1" vertex="1">
          <mxGeometry x="270" y="170" width="120" height="60" as="geometry" />
        </mxCell>
        <mxCell id="2iDB4tE-BqQWnQyovVJ9-3" value="Message dead-letters to polling queue" style="rounded=1;whiteSpace=wrap;html=1;" parent="1" vertex="1">
          <mxGeometry x="70" y="310" width="120" height="60" as="geometry" />
        </mxCell>
        <mxCell id="2iDB4tE-BqQWnQyovVJ9-4" value="Message&lt;div&gt;time-to-live (TTL)&lt;/div&gt;&lt;div&gt;ends&lt;/div&gt;" style="shape=parallelogram;perimeter=parallelogramPerimeter;whiteSpace=wrap;html=1;fixedSize=1;" parent="1" vertex="1">
          <mxGeometry x="265" y="260" width="130" height="60" as="geometry" />
        </mxCell>
        <mxCell id="2iDB4tE-BqQWnQyovVJ9-5" value="Agent receives message, polls for scan completed" style="rounded=1;whiteSpace=wrap;html=1;" parent="1" vertex="1">
          <mxGeometry x="70" y="420" width="120" height="60" as="geometry" />
        </mxCell>
        <mxCell id="2iDB4tE-BqQWnQyovVJ9-6" value="Scan complete?" style="rhombus;whiteSpace=wrap;html=1;" parent="1" vertex="1">
          <mxGeometry x="75" y="520" width="110" height="100" as="geometry" />
        </mxCell>
        <mxCell id="2iDB4tE-BqQWnQyovVJ9-7" value="Agent re-enqueues message with increased TTL" style="rounded=1;whiteSpace=wrap;html=1;" parent="1" vertex="1">
          <mxGeometry x="395" y="395" width="120" height="60" as="geometry" />
        </mxCell>
        <mxCell id="2iDB4tE-BqQWnQyovVJ9-8" value="Max&amp;nbsp;&lt;div&gt;scan timeout expired?&lt;/div&gt;" style="rhombus;whiteSpace=wrap;html=1;" parent="1" vertex="1">
          <mxGeometry x="275" y="520" width="110" height="100" as="geometry" />
        </mxCell>
        <mxCell id="KciCwgNPr2Nihq0C46VP-1" value="Scan monitoring ends" style="ellipse;whiteSpace=wrap;html=1;" parent="1" vertex="1">
          <mxGeometry x="235" y="750" width="190" height="50" as="geometry" />
        </mxCell>
        <mxCell id="KciCwgNPr2Nihq0C46VP-2" value="Agent &quot;ack&quot; message, message removed from queue" style="rounded=1;whiteSpace=wrap;html=1;" parent="1" vertex="1">
          <mxGeometry x="270" y="660" width="120" height="60" as="geometry" />
        </mxCell>
        <mxCell id="KciCwgNPr2Nihq0C46VP-3" value="Agent enqueues next workflow message" style="rounded=1;whiteSpace=wrap;html=1;" parent="1" vertex="1">
          <mxGeometry x="70" y="660" width="120" height="60" as="geometry" />
        </mxCell>
        <mxCell id="KciCwgNPr2Nihq0C46VP-4" value="" style="endArrow=classic;html=1;rounded=0;entryX=0;entryY=0.5;entryDx=0;entryDy=0;exitX=1;exitY=0.5;exitDx=0;exitDy=0;" parent="1" source="2iDB4tE-BqQWnQyovVJ9-1" target="2iDB4tE-BqQWnQyovVJ9-2" edge="1">
          <mxGeometry width="50" height="50" relative="1" as="geometry">
            <mxPoint x="110" y="300" as="sourcePoint" />
            <mxPoint x="160" y="250" as="targetPoint" />
          </mxGeometry>
        </mxCell>
        <mxCell id="KciCwgNPr2Nihq0C46VP-5" value="" style="endArrow=classic;html=1;rounded=0;entryX=0.5;entryY=0;entryDx=0;entryDy=0;exitX=0.5;exitY=1;exitDx=0;exitDy=0;" parent="1" source="2iDB4tE-BqQWnQyovVJ9-2" target="2iDB4tE-BqQWnQyovVJ9-4" edge="1">
          <mxGeometry width="50" height="50" relative="1" as="geometry">
            <mxPoint x="120" y="320" as="sourcePoint" />
            <mxPoint x="170" y="270" as="targetPoint" />
          </mxGeometry>
        </mxCell>
        <mxCell id="KciCwgNPr2Nihq0C46VP-6" value="" style="endArrow=classic;html=1;rounded=0;entryX=1;entryY=0.5;entryDx=0;entryDy=0;exitX=0.442;exitY=0.983;exitDx=0;exitDy=0;exitPerimeter=0;" parent="1" source="2iDB4tE-BqQWnQyovVJ9-4" target="2iDB4tE-BqQWnQyovVJ9-3" edge="1">
          <mxGeometry width="50" height="50" relative="1" as="geometry">
            <mxPoint x="80" y="350" as="sourcePoint" />
            <mxPoint x="130" y="300" as="targetPoint" />
            <Array as="points">
              <mxPoint x="322" y="340" />
            </Array>
          </mxGeometry>
        </mxCell>
        <mxCell id="KciCwgNPr2Nihq0C46VP-7" value="" style="endArrow=classic;html=1;rounded=0;entryX=0.5;entryY=0;entryDx=0;entryDy=0;exitX=0.5;exitY=1;exitDx=0;exitDy=0;" parent="1" source="2iDB4tE-BqQWnQyovVJ9-3" target="2iDB4tE-BqQWnQyovVJ9-5" edge="1">
          <mxGeometry width="50" height="50" relative="1" as="geometry">
            <mxPoint y="410" as="sourcePoint" />
            <mxPoint x="50" y="360" as="targetPoint" />
          </mxGeometry>
        </mxCell>
        <mxCell id="KciCwgNPr2Nihq0C46VP-8" value="" style="endArrow=classic;html=1;rounded=0;entryX=0.5;entryY=0;entryDx=0;entryDy=0;exitX=0.5;exitY=1;exitDx=0;exitDy=0;" parent="1" source="2iDB4tE-BqQWnQyovVJ9-5" target="2iDB4tE-BqQWnQyovVJ9-6" edge="1">
          <mxGeometry width="50" height="50" relative="1" as="geometry">
            <mxPoint x="270" y="530" as="sourcePoint" />
            <mxPoint x="320" y="480" as="targetPoint" />
          </mxGeometry>
        </mxCell>
        <mxCell id="KciCwgNPr2Nihq0C46VP-9" value="" style="endArrow=classic;html=1;rounded=0;entryX=0.5;entryY=0;entryDx=0;entryDy=0;exitX=0.5;exitY=1;exitDx=0;exitDy=0;" parent="1" source="2iDB4tE-BqQWnQyovVJ9-6" target="KciCwgNPr2Nihq0C46VP-3" edge="1">
          <mxGeometry width="50" height="50" relative="1" as="geometry">
            <mxPoint x="280" y="500" as="sourcePoint" />
            <mxPoint x="330" y="450" as="targetPoint" />
          </mxGeometry>
        </mxCell>
        <mxCell id="KciCwgNPr2Nihq0C46VP-10" value="Yes" style="text;html=1;align=center;verticalAlign=middle;whiteSpace=wrap;rounded=0;" parent="1" vertex="1">
          <mxGeometry x="120" y="620" width="60" height="30" as="geometry" />
        </mxCell>
        <mxCell id="KciCwgNPr2Nihq0C46VP-11" value="" style="endArrow=classic;html=1;rounded=0;entryX=0;entryY=0.5;entryDx=0;entryDy=0;exitX=1;exitY=0.5;exitDx=0;exitDy=0;" parent="1" source="KciCwgNPr2Nihq0C46VP-3" target="KciCwgNPr2Nihq0C46VP-2" edge="1">
          <mxGeometry width="50" height="50" relative="1" as="geometry">
            <mxPoint x="360" y="540" as="sourcePoint" />
            <mxPoint x="410" y="490" as="targetPoint" />
          </mxGeometry>
        </mxCell>
        <mxCell id="KciCwgNPr2Nihq0C46VP-12" value="" style="endArrow=classic;html=1;rounded=0;entryX=0;entryY=0.5;entryDx=0;entryDy=0;exitX=1;exitY=0.5;exitDx=0;exitDy=0;" parent="1" source="2iDB4tE-BqQWnQyovVJ9-6" target="2iDB4tE-BqQWnQyovVJ9-8" edge="1">
          <mxGeometry width="50" height="50" relative="1" as="geometry">
            <mxPoint x="240" y="450" as="sourcePoint" />
            <mxPoint x="290" y="400" as="targetPoint" />
          </mxGeometry>
        </mxCell>
        <mxCell id="KciCwgNPr2Nihq0C46VP-13" value="No" style="text;html=1;align=center;verticalAlign=middle;whiteSpace=wrap;rounded=0;" parent="1" vertex="1">
          <mxGeometry x="190" y="550" width="60" height="30" as="geometry" />
        </mxCell>
        <mxCell id="KciCwgNPr2Nihq0C46VP-14" value="" style="endArrow=classic;html=1;rounded=0;entryX=0.5;entryY=1;entryDx=0;entryDy=0;exitX=1;exitY=0.5;exitDx=0;exitDy=0;" parent="1" source="2iDB4tE-BqQWnQyovVJ9-8" target="2iDB4tE-BqQWnQyovVJ9-7" edge="1">
          <mxGeometry width="50" height="50" relative="1" as="geometry">
            <mxPoint x="470" y="580" as="sourcePoint" />
            <mxPoint x="520" y="530" as="targetPoint" />
            <Array as="points">
              <mxPoint x="455" y="570" />
            </Array>
          </mxGeometry>
        </mxCell>
        <mxCell id="KciCwgNPr2Nihq0C46VP-15" value="No" style="text;html=1;align=center;verticalAlign=middle;whiteSpace=wrap;rounded=0;" parent="1" vertex="1">
          <mxGeometry x="385" y="550" width="60" height="30" as="geometry" />
        </mxCell>
        <mxCell id="KciCwgNPr2Nihq0C46VP-16" value="" style="endArrow=classic;html=1;rounded=0;entryX=0.5;entryY=0;entryDx=0;entryDy=0;exitX=0.5;exitY=1;exitDx=0;exitDy=0;" parent="1" source="2iDB4tE-BqQWnQyovVJ9-8" target="KciCwgNPr2Nihq0C46VP-2" edge="1">
          <mxGeometry width="50" height="50" relative="1" as="geometry">
            <mxPoint x="560" y="590" as="sourcePoint" />
            <mxPoint x="610" y="540" as="targetPoint" />
          </mxGeometry>
        </mxCell>
        <mxCell id="KciCwgNPr2Nihq0C46VP-17" value="Yes" style="text;html=1;align=center;verticalAlign=middle;whiteSpace=wrap;rounded=0;" parent="1" vertex="1">
          <mxGeometry x="320" y="620" width="60" height="30" as="geometry" />
        </mxCell>
        <mxCell id="KciCwgNPr2Nihq0C46VP-18" value="" style="endArrow=classic;html=1;rounded=0;entryX=0.5;entryY=0;entryDx=0;entryDy=0;exitX=0.5;exitY=1;exitDx=0;exitDy=0;" parent="1" source="KciCwgNPr2Nihq0C46VP-2" target="KciCwgNPr2Nihq0C46VP-1" edge="1">
          <mxGeometry width="50" height="50" relative="1" as="geometry">
            <mxPoint x="620" y="560" as="sourcePoint" />
            <mxPoint x="670" y="510" as="targetPoint" />
          </mxGeometry>
        </mxCell>
        <mxCell id="KciCwgNPr2Nihq0C46VP-19" value="" style="endArrow=classic;html=1;rounded=0;entryX=1;entryY=0.5;entryDx=0;entryDy=0;exitX=0.5;exitY=0;exitDx=0;exitDy=0;" parent="1" source="2iDB4tE-BqQWnQyovVJ9-7" target="2iDB4tE-BqQWnQyovVJ9-2" edge="1">
          <mxGeometry width="50" height="50" relative="1" as="geometry">
            <mxPoint x="550" y="310" as="sourcePoint" />
            <mxPoint x="600" y="260" as="targetPoint" />
            <Array as="points">
              <mxPoint x="455" y="200" />
            </Array>
          </mxGeometry>
        </mxCell>
      </root>
    </mxGraphModel>
  </diagram>
  <diagram id="V0hdjuGcHadYWhVix3z0" name="Deferred Scan Algorithm">
    <mxGraphModel dx="1434" dy="844" grid="1" gridSize="10" guides="1" tooltips="1" connect="1" arrows="1" fold="1" page="1" pageScale="1" pageWidth="1100" pageHeight="850" math="0" shadow="0">
      <root>
        <mxCell id="0" />
        <mxCell id="1" parent="0" />
        <mxCell id="rNwFysz29WWOODsFbYcB-1" value="Receive SCM Event" style="rounded=1;whiteSpace=wrap;html=1;" vertex="1" parent="1">
          <mxGeometry x="460" y="20" width="120" height="60" as="geometry" />
        </mxCell>
        <mxCell id="rNwFysz29WWOODsFbYcB-2" value="Is project tagged&lt;div&gt;for resolver agent?&lt;/div&gt;" style="rhombus;whiteSpace=wrap;html=1;" vertex="1" parent="1">
          <mxGeometry x="435" y="140" width="170" height="130" as="geometry" />
        </mxCell>
        <mxCell id="rNwFysz29WWOODsFbYcB-3" value="Is a default resolver&lt;div&gt;agent tag configured?&lt;/div&gt;" style="rhombus;whiteSpace=wrap;html=1;" vertex="1" parent="1">
          <mxGeometry x="435" y="330" width="170" height="130" as="geometry" />
        </mxCell>
        <mxCell id="rNwFysz29WWOODsFbYcB-4" value="Is the tag in the list&lt;div&gt;of allowed tags?&lt;/div&gt;" style="rhombus;whiteSpace=wrap;html=1;" vertex="1" parent="1">
          <mxGeometry x="435" y="520" width="170" height="130" as="geometry" />
        </mxCell>
        <mxCell id="rNwFysz29WWOODsFbYcB-5" value="" style="endArrow=classic;html=1;rounded=0;entryX=0.5;entryY=0;entryDx=0;entryDy=0;exitX=0.5;exitY=1;exitDx=0;exitDy=0;" edge="1" parent="1" source="rNwFysz29WWOODsFbYcB-1" target="rNwFysz29WWOODsFbYcB-2">
          <mxGeometry width="50" height="50" relative="1" as="geometry">
            <mxPoint x="390" y="140" as="sourcePoint" />
            <mxPoint x="440" y="90" as="targetPoint" />
          </mxGeometry>
        </mxCell>
        <mxCell id="rNwFysz29WWOODsFbYcB-6" value="" style="endArrow=classic;html=1;rounded=0;entryX=0.5;entryY=0;entryDx=0;entryDy=0;exitX=0.5;exitY=1;exitDx=0;exitDy=0;" edge="1" parent="1" source="rNwFysz29WWOODsFbYcB-2" target="rNwFysz29WWOODsFbYcB-3">
          <mxGeometry width="50" height="50" relative="1" as="geometry">
            <mxPoint x="190" y="360" as="sourcePoint" />
            <mxPoint x="240" y="310" as="targetPoint" />
          </mxGeometry>
        </mxCell>
        <mxCell id="Ip_ID1jLlG09tsIrDOAG-1" value="No" style="text;html=1;align=center;verticalAlign=middle;whiteSpace=wrap;rounded=0;" vertex="1" parent="1">
          <mxGeometry x="503" y="280" width="60" height="30" as="geometry" />
        </mxCell>
        <mxCell id="Ip_ID1jLlG09tsIrDOAG-2" value="" style="endArrow=classic;html=1;rounded=0;entryX=0.5;entryY=0;entryDx=0;entryDy=0;exitX=0.5;exitY=1;exitDx=0;exitDy=0;" edge="1" parent="1" source="rNwFysz29WWOODsFbYcB-3" target="rNwFysz29WWOODsFbYcB-4">
          <mxGeometry width="50" height="50" relative="1" as="geometry">
            <mxPoint x="290" y="590" as="sourcePoint" />
            <mxPoint x="340" y="540" as="targetPoint" />
          </mxGeometry>
        </mxCell>
        <mxCell id="Ip_ID1jLlG09tsIrDOAG-3" value="" style="endArrow=classic;html=1;rounded=0;exitX=1;exitY=0.5;exitDx=0;exitDy=0;entryX=1;entryY=0.5;entryDx=0;entryDy=0;" edge="1" parent="1" source="rNwFysz29WWOODsFbYcB-2" target="rNwFysz29WWOODsFbYcB-4">
          <mxGeometry width="50" height="50" relative="1" as="geometry">
            <mxPoint x="660" y="260" as="sourcePoint" />
            <mxPoint x="710" y="210" as="targetPoint" />
            <Array as="points">
              <mxPoint x="700" y="205" />
              <mxPoint x="700" y="585" />
            </Array>
          </mxGeometry>
        </mxCell>
        <mxCell id="ampBkK1hCPCNzRt1OloW-1" value="Yes" style="text;html=1;align=center;verticalAlign=middle;whiteSpace=wrap;rounded=0;" vertex="1" parent="1">
          <mxGeometry x="600" y="180" width="60" height="30" as="geometry" />
        </mxCell>
        <mxCell id="ampBkK1hCPCNzRt1OloW-2" value="Yes" style="text;html=1;align=center;verticalAlign=middle;whiteSpace=wrap;rounded=0;" vertex="1" parent="1">
          <mxGeometry x="503" y="470" width="60" height="30" as="geometry" />
        </mxCell>
        <mxCell id="ampBkK1hCPCNzRt1OloW-3" value="Submit Scan Immediately" style="rounded=1;whiteSpace=wrap;html=1;" vertex="1" parent="1">
          <mxGeometry x="200" y="555" width="120" height="60" as="geometry" />
        </mxCell>
        <mxCell id="ampBkK1hCPCNzRt1OloW-4" value="" style="endArrow=classic;html=1;rounded=0;entryX=1;entryY=0.5;entryDx=0;entryDy=0;exitX=0;exitY=0.5;exitDx=0;exitDy=0;" edge="1" parent="1" source="rNwFysz29WWOODsFbYcB-4" target="ampBkK1hCPCNzRt1OloW-3">
          <mxGeometry width="50" height="50" relative="1" as="geometry">
            <mxPoint x="300" y="630" as="sourcePoint" />
            <mxPoint x="350" y="580" as="targetPoint" />
          </mxGeometry>
        </mxCell>
        <mxCell id="ampBkK1hCPCNzRt1OloW-5" value="No" style="text;html=1;align=center;verticalAlign=middle;whiteSpace=wrap;rounded=0;" vertex="1" parent="1">
          <mxGeometry x="360" y="560" width="60" height="30" as="geometry" />
        </mxCell>
        <mxCell id="ampBkK1hCPCNzRt1OloW-6" value="Enqueue Deferred&lt;div&gt;Scan for Tagged Agent&lt;/div&gt;" style="rounded=1;whiteSpace=wrap;html=1;" vertex="1" parent="1">
          <mxGeometry x="460" y="720" width="120" height="60" as="geometry" />
        </mxCell>
        <mxCell id="ampBkK1hCPCNzRt1OloW-7" value="" style="endArrow=classic;html=1;rounded=0;entryX=0.5;entryY=0;entryDx=0;entryDy=0;exitX=0.5;exitY=1;exitDx=0;exitDy=0;" edge="1" parent="1" source="rNwFysz29WWOODsFbYcB-4" target="ampBkK1hCPCNzRt1OloW-6">
          <mxGeometry width="50" height="50" relative="1" as="geometry">
            <mxPoint x="370" y="520" as="sourcePoint" />
            <mxPoint x="420" y="470" as="targetPoint" />
          </mxGeometry>
        </mxCell>
        <mxCell id="ampBkK1hCPCNzRt1OloW-8" value="Yes" style="text;html=1;align=center;verticalAlign=middle;whiteSpace=wrap;rounded=0;" vertex="1" parent="1">
          <mxGeometry x="503" y="670" width="60" height="30" as="geometry" />
        </mxCell>
        <mxCell id="ampBkK1hCPCNzRt1OloW-9" value="" style="endArrow=classic;html=1;rounded=0;entryX=0.5;entryY=0;entryDx=0;entryDy=0;exitX=0;exitY=0.5;exitDx=0;exitDy=0;" edge="1" parent="1" source="rNwFysz29WWOODsFbYcB-3" target="ampBkK1hCPCNzRt1OloW-3">
          <mxGeometry width="50" height="50" relative="1" as="geometry">
            <mxPoint x="220" y="420" as="sourcePoint" />
            <mxPoint x="270" y="370" as="targetPoint" />
            <Array as="points">
              <mxPoint x="260" y="395" />
            </Array>
          </mxGeometry>
        </mxCell>
        <mxCell id="ampBkK1hCPCNzRt1OloW-10" value="No" style="text;html=1;align=center;verticalAlign=middle;whiteSpace=wrap;rounded=0;" vertex="1" parent="1">
          <mxGeometry x="360" y="370" width="60" height="30" as="geometry" />
        </mxCell>
      </root>
    </mxGraphModel>
  </diagram>
  <diagram id="K-YiR03yUvPZv_JgfoCH" name="Post Deferred Scan Algorithm">
    <mxGraphModel dx="1434" dy="844" grid="1" gridSize="10" guides="1" tooltips="1" connect="1" arrows="1" fold="1" page="1" pageScale="1" pageWidth="1100" pageHeight="850" math="0" shadow="0">
      <root>
        <mxCell id="0" />
        <mxCell id="1" parent="0" />
        <mxCell id="VNtjMY-8ZgDZIRA-m5qi-1" value="Receive Deferred Scan Finished Message" style="rounded=1;whiteSpace=wrap;html=1;" parent="1" vertex="1">
          <mxGeometry x="460" y="20" width="120" height="60" as="geometry" />
        </mxCell>
        <mxCell id="VNtjMY-8ZgDZIRA-m5qi-2" value="Does the event&lt;div&gt;signature validate?&lt;/div&gt;" style="rhombus;whiteSpace=wrap;html=1;" parent="1" vertex="1">
          <mxGeometry x="435" y="140" width="170" height="130" as="geometry" />
        </mxCell>
        <mxCell id="VNtjMY-8ZgDZIRA-m5qi-3" value="Does the event&lt;div&gt;context&amp;nbsp;&lt;span style=&quot;background-color: initial;&quot;&gt;match a service&amp;nbsp;&lt;/span&gt;&lt;span style=&quot;background-color: initial;&quot;&gt;definition&lt;/span&gt;&lt;/div&gt;&lt;div&gt;&lt;span style=&quot;background-color: initial;&quot;&gt;route?&lt;/span&gt;&lt;/div&gt;" style="rhombus;whiteSpace=wrap;html=1;" parent="1" vertex="1">
          <mxGeometry x="435" y="330" width="170" height="130" as="geometry" />
        </mxCell>
        <mxCell id="VNtjMY-8ZgDZIRA-m5qi-5" value="" style="endArrow=classic;html=1;rounded=0;entryX=0.5;entryY=0;entryDx=0;entryDy=0;exitX=0.5;exitY=1;exitDx=0;exitDy=0;" parent="1" source="VNtjMY-8ZgDZIRA-m5qi-1" target="VNtjMY-8ZgDZIRA-m5qi-2" edge="1">
          <mxGeometry width="50" height="50" relative="1" as="geometry">
            <mxPoint x="390" y="140" as="sourcePoint" />
            <mxPoint x="440" y="90" as="targetPoint" />
          </mxGeometry>
        </mxCell>
        <mxCell id="VNtjMY-8ZgDZIRA-m5qi-6" value="" style="endArrow=classic;html=1;rounded=0;entryX=0.5;entryY=0;entryDx=0;entryDy=0;exitX=0.5;exitY=1;exitDx=0;exitDy=0;" parent="1" source="VNtjMY-8ZgDZIRA-m5qi-2" target="VNtjMY-8ZgDZIRA-m5qi-3" edge="1">
          <mxGeometry width="50" height="50" relative="1" as="geometry">
            <mxPoint x="190" y="360" as="sourcePoint" />
            <mxPoint x="240" y="310" as="targetPoint" />
          </mxGeometry>
        </mxCell>
        <mxCell id="VNtjMY-8ZgDZIRA-m5qi-7" value="No" style="text;html=1;align=center;verticalAlign=middle;whiteSpace=wrap;rounded=0;" parent="1" vertex="1">
          <mxGeometry x="600" y="180" width="60" height="30" as="geometry" />
        </mxCell>
        <mxCell id="VNtjMY-8ZgDZIRA-m5qi-8" value="" style="endArrow=classic;html=1;rounded=0;entryX=0.5;entryY=0;entryDx=0;entryDy=0;exitX=0.5;exitY=1;exitDx=0;exitDy=0;" parent="1" source="VNtjMY-8ZgDZIRA-m5qi-3" target="VNtjMY-8ZgDZIRA-m5qi-12" edge="1">
          <mxGeometry width="50" height="50" relative="1" as="geometry">
            <mxPoint x="290" y="590" as="sourcePoint" />
            <mxPoint x="520" y="520" as="targetPoint" />
          </mxGeometry>
        </mxCell>
        <mxCell id="VNtjMY-8ZgDZIRA-m5qi-10" value="Yes" style="text;html=1;align=center;verticalAlign=middle;whiteSpace=wrap;rounded=0;" parent="1" vertex="1">
          <mxGeometry x="510" y="270" width="60" height="30" as="geometry" />
        </mxCell>
        <mxCell id="VNtjMY-8ZgDZIRA-m5qi-11" value="Yes" style="text;html=1;align=center;verticalAlign=middle;whiteSpace=wrap;rounded=0;" parent="1" vertex="1">
          <mxGeometry x="503" y="470" width="60" height="30" as="geometry" />
        </mxCell>
        <mxCell id="VNtjMY-8ZgDZIRA-m5qi-12" value="Clone the Code" style="rounded=1;whiteSpace=wrap;html=1;" parent="1" vertex="1">
          <mxGeometry x="460" y="540" width="120" height="60" as="geometry" />
        </mxCell>
        <mxCell id="VNtjMY-8ZgDZIRA-m5qi-15" value="Reject the message, do not scan." style="rounded=1;whiteSpace=wrap;html=1;" parent="1" vertex="1">
          <mxGeometry x="690" y="270" width="120" height="60" as="geometry" />
        </mxCell>
        <mxCell id="VNtjMY-8ZgDZIRA-m5qi-20" value="" style="endArrow=classic;html=1;rounded=0;exitX=1;exitY=0.5;exitDx=0;exitDy=0;entryX=0.5;entryY=0;entryDx=0;entryDy=0;" parent="1" source="VNtjMY-8ZgDZIRA-m5qi-2" target="VNtjMY-8ZgDZIRA-m5qi-15" edge="1">
          <mxGeometry width="50" height="50" relative="1" as="geometry">
            <mxPoint x="700" y="250" as="sourcePoint" />
            <mxPoint x="750" y="200" as="targetPoint" />
            <Array as="points">
              <mxPoint x="750" y="205" />
            </Array>
          </mxGeometry>
        </mxCell>
        <mxCell id="VNtjMY-8ZgDZIRA-m5qi-21" value="" style="endArrow=classic;html=1;rounded=0;exitX=1;exitY=0.5;exitDx=0;exitDy=0;entryX=0.5;entryY=1;entryDx=0;entryDy=0;" parent="1" source="VNtjMY-8ZgDZIRA-m5qi-3" target="VNtjMY-8ZgDZIRA-m5qi-15" edge="1">
          <mxGeometry width="50" height="50" relative="1" as="geometry">
            <mxPoint x="630" y="400" as="sourcePoint" />
            <mxPoint x="680" y="350" as="targetPoint" />
            <Array as="points">
              <mxPoint x="750" y="395" />
            </Array>
          </mxGeometry>
        </mxCell>
        <mxCell id="VNtjMY-8ZgDZIRA-m5qi-22" value="No" style="text;html=1;align=center;verticalAlign=middle;whiteSpace=wrap;rounded=0;" parent="1" vertex="1">
          <mxGeometry x="600" y="370" width="60" height="30" as="geometry" />
        </mxCell>
        <mxCell id="VNtjMY-8ZgDZIRA-m5qi-24" value="Submit scan with resolver results" style="rounded=1;whiteSpace=wrap;html=1;" parent="1" vertex="1">
          <mxGeometry x="640" y="540" width="120" height="60" as="geometry" />
        </mxCell>
        <mxCell id="VNtjMY-8ZgDZIRA-m5qi-27" value="" style="endArrow=classic;html=1;rounded=0;entryX=0;entryY=0.5;entryDx=0;entryDy=0;exitX=1;exitY=0.5;exitDx=0;exitDy=0;" parent="1" source="VNtjMY-8ZgDZIRA-m5qi-12" target="VNtjMY-8ZgDZIRA-m5qi-24" edge="1">
          <mxGeometry width="50" height="50" relative="1" as="geometry">
            <mxPoint x="320" y="670" as="sourcePoint" />
            <mxPoint x="370" y="620" as="targetPoint" />
          </mxGeometry>
        </mxCell>
      </root>
    </mxGraphModel>
  </diagram>
  <diagram id="UtkQBwbotbOfwq16i6QE" name="Resolver Agent Diagram">
    <mxGraphModel dx="1434" dy="844" grid="1" gridSize="10" guides="1" tooltips="1" connect="1" arrows="1" fold="1" page="1" pageScale="1" pageWidth="1100" pageHeight="850" math="0" shadow="0">
      <root>
        <mxCell id="0" />
        <mxCell id="1" parent="0" />
        <mxCell id="PYlpa8vcw6fMuh7m8NHM-1" value="CxOneFlow&lt;div&gt;Instance&lt;/div&gt;" style="rounded=0;whiteSpace=wrap;html=1;fillColor=#f5f5f5;fontColor=#333333;strokeColor=#666666;" vertex="1" parent="1">
          <mxGeometry x="745" y="60" width="120" height="60" as="geometry" />
        </mxCell>
        <mxCell id="PYlpa8vcw6fMuh7m8NHM-2" value="AMQP Server" style="rounded=0;whiteSpace=wrap;html=1;fillColor=#f5f5f5;fontColor=#333333;strokeColor=#666666;" vertex="1" parent="1">
          <mxGeometry x="735" y="340" width="120" height="59.07" as="geometry" />
        </mxCell>
        <mxCell id="PYlpa8vcw6fMuh7m8NHM-4" value="Source Control" style="rounded=0;whiteSpace=wrap;html=1;fillColor=#f5f5f5;fontColor=#333333;strokeColor=#666666;" vertex="1" parent="1">
          <mxGeometry x="80" y="60" width="120" height="60" as="geometry" />
        </mxCell>
        <mxCell id="PYlpa8vcw6fMuh7m8NHM-5" value="Private Package&lt;div&gt;Repository&lt;/div&gt;" style="rounded=0;whiteSpace=wrap;html=1;fillColor=#f5f5f5;fontColor=#333333;strokeColor=#666666;" vertex="1" parent="1">
          <mxGeometry x="50" y="610" width="120" height="60" as="geometry" />
        </mxCell>
        <mxCell id="PYlpa8vcw6fMuh7m8NHM-8" value="" style="endArrow=classic;html=1;rounded=0;exitX=1;exitY=0.5;exitDx=0;exitDy=0;entryX=0;entryY=0.5;entryDx=0;entryDy=0;" edge="1" parent="1" source="PYlpa8vcw6fMuh7m8NHM-4" target="PYlpa8vcw6fMuh7m8NHM-1">
          <mxGeometry width="50" height="50" relative="1" as="geometry">
            <mxPoint x="240" y="260" as="sourcePoint" />
            <mxPoint x="290" y="210" as="targetPoint" />
          </mxGeometry>
        </mxCell>
        <mxCell id="PYlpa8vcw6fMuh7m8NHM-9" value="&amp;lt;&amp;lt;deliver event&amp;gt;&amp;gt;" style="text;html=1;align=center;verticalAlign=middle;whiteSpace=wrap;rounded=0;" vertex="1" parent="1">
          <mxGeometry x="210" y="60" width="450" height="30" as="geometry" />
        </mxCell>
        <mxCell id="PYlpa8vcw6fMuh7m8NHM-10" value="" style="endArrow=classic;html=1;rounded=0;entryX=0.5;entryY=0;entryDx=0;entryDy=0;" edge="1" parent="1" target="PYlpa8vcw6fMuh7m8NHM-2">
          <mxGeometry width="50" height="50" relative="1" as="geometry">
            <mxPoint x="795" y="120" as="sourcePoint" />
            <mxPoint x="1015" y="120" as="targetPoint" />
          </mxGeometry>
        </mxCell>
        <mxCell id="PYlpa8vcw6fMuh7m8NHM-11" value="&amp;lt;&amp;lt;deferred scan event&amp;gt;&amp;gt;" style="text;html=1;align=center;verticalAlign=middle;whiteSpace=wrap;rounded=0;rotation=90;" vertex="1" parent="1">
          <mxGeometry x="710" y="215" width="210" height="30" as="geometry" />
        </mxCell>
        <mxCell id="PYlpa8vcw6fMuh7m8NHM-14" value="Build Box" style="rounded=0;whiteSpace=wrap;html=1;horizontal=1;labelPosition=center;verticalLabelPosition=middle;align=center;verticalAlign=top;fillColor=#dae8fc;strokeColor=#6c8ebf;" vertex="1" parent="1">
          <mxGeometry x="330" y="410" width="150" height="110" as="geometry" />
        </mxCell>
        <mxCell id="PYlpa8vcw6fMuh7m8NHM-15" value="Private Container Image Repository" style="rounded=0;whiteSpace=wrap;html=1;fillColor=#f5f5f5;fontColor=#333333;strokeColor=#666666;" vertex="1" parent="1">
          <mxGeometry x="50" y="530" width="120" height="60" as="geometry" />
        </mxCell>
        <mxCell id="PYlpa8vcw6fMuh7m8NHM-21" value="" style="group;fillColor=#d5e8d4;strokeColor=#82b366;" vertex="1" connectable="0" parent="1">
          <mxGeometry x="330" y="190" width="150" height="190" as="geometry" />
        </mxCell>
        <mxCell id="PYlpa8vcw6fMuh7m8NHM-13" value="CI/CD Self-Hosted Runner" style="rounded=0;whiteSpace=wrap;html=1;horizontal=1;labelPosition=center;verticalLabelPosition=middle;align=center;verticalAlign=top;fillColor=#dae8fc;strokeColor=#6c8ebf;" vertex="1" parent="PYlpa8vcw6fMuh7m8NHM-21">
          <mxGeometry width="150" height="190" as="geometry" />
        </mxCell>
        <mxCell id="PYlpa8vcw6fMuh7m8NHM-18" value="Runner Agent&lt;div&gt;(third-party)&lt;/div&gt;" style="rounded=1;whiteSpace=wrap;html=1;fillColor=#d5e8d4;strokeColor=#82b366;" vertex="1" parent="PYlpa8vcw6fMuh7m8NHM-21">
          <mxGeometry x="10" y="30" width="120" height="60" as="geometry" />
        </mxCell>
        <mxCell id="PYlpa8vcw6fMuh7m8NHM-19" value="Resolver Agent" style="rounded=1;whiteSpace=wrap;html=1;fillColor=#fff2cc;strokeColor=#d6b656;" vertex="1" parent="PYlpa8vcw6fMuh7m8NHM-21">
          <mxGeometry x="10" y="110" width="120" height="60" as="geometry" />
        </mxCell>
        <mxCell id="PYlpa8vcw6fMuh7m8NHM-22" value="" style="endArrow=classic;html=1;rounded=0;entryX=0.5;entryY=1;entryDx=0;entryDy=0;exitX=0;exitY=0.25;exitDx=0;exitDy=0;" edge="1" parent="1" source="PYlpa8vcw6fMuh7m8NHM-18" target="PYlpa8vcw6fMuh7m8NHM-4">
          <mxGeometry width="50" height="50" relative="1" as="geometry">
            <mxPoint x="270" y="510" as="sourcePoint" />
            <mxPoint x="320" y="460" as="targetPoint" />
            <Array as="points">
              <mxPoint x="140" y="235" />
            </Array>
          </mxGeometry>
        </mxCell>
        <mxCell id="PYlpa8vcw6fMuh7m8NHM-23" value="" style="endArrow=classic;html=1;rounded=0;entryX=0.5;entryY=1;entryDx=0;entryDy=0;exitX=0;exitY=0.25;exitDx=0;exitDy=0;" edge="1" parent="1" source="PYlpa8vcw6fMuh7m8NHM-19" target="PYlpa8vcw6fMuh7m8NHM-4">
          <mxGeometry width="50" height="50" relative="1" as="geometry">
            <mxPoint x="160" y="430" as="sourcePoint" />
            <mxPoint x="210" y="380" as="targetPoint" />
            <Array as="points">
              <mxPoint x="140" y="315" />
            </Array>
          </mxGeometry>
        </mxCell>
        <mxCell id="PYlpa8vcw6fMuh7m8NHM-24" value="" style="endArrow=classic;html=1;rounded=0;entryX=0;entryY=0.25;entryDx=0;entryDy=0;exitX=1;exitY=0.5;exitDx=0;exitDy=0;" edge="1" parent="1" source="PYlpa8vcw6fMuh7m8NHM-19" target="PYlpa8vcw6fMuh7m8NHM-2">
          <mxGeometry width="50" height="50" relative="1" as="geometry">
            <mxPoint x="520" y="460" as="sourcePoint" />
            <mxPoint x="570" y="410" as="targetPoint" />
            <Array as="points">
              <mxPoint x="690" y="330" />
              <mxPoint x="690" y="355" />
            </Array>
          </mxGeometry>
        </mxCell>
        <mxCell id="PYlpa8vcw6fMuh7m8NHM-25" value="Resolver Agent" style="rounded=1;whiteSpace=wrap;html=1;fillColor=#fff2cc;strokeColor=#d6b656;" vertex="1" parent="1">
          <mxGeometry x="345" y="445" width="120" height="60" as="geometry" />
        </mxCell>
        <mxCell id="PYlpa8vcw6fMuh7m8NHM-26" value="" style="endArrow=classic;html=1;rounded=0;exitX=1;exitY=0.5;exitDx=0;exitDy=0;entryX=0;entryY=0.75;entryDx=0;entryDy=0;" edge="1" parent="1" source="PYlpa8vcw6fMuh7m8NHM-25" target="PYlpa8vcw6fMuh7m8NHM-2">
          <mxGeometry width="50" height="50" relative="1" as="geometry">
            <mxPoint x="570" y="500" as="sourcePoint" />
            <mxPoint x="620" y="450" as="targetPoint" />
            <Array as="points">
              <mxPoint x="690" y="475" />
              <mxPoint x="690" y="384" />
            </Array>
          </mxGeometry>
        </mxCell>
        <mxCell id="PYlpa8vcw6fMuh7m8NHM-27" value="" style="endArrow=classic;html=1;rounded=0;exitX=0;exitY=0.25;exitDx=0;exitDy=0;entryX=0.5;entryY=1;entryDx=0;entryDy=0;" edge="1" parent="1" source="PYlpa8vcw6fMuh7m8NHM-25" target="PYlpa8vcw6fMuh7m8NHM-4">
          <mxGeometry width="50" height="50" relative="1" as="geometry">
            <mxPoint x="190" y="510" as="sourcePoint" />
            <mxPoint x="240" y="460" as="targetPoint" />
            <Array as="points">
              <mxPoint x="140" y="460" />
            </Array>
          </mxGeometry>
        </mxCell>
        <mxCell id="PYlpa8vcw6fMuh7m8NHM-28" value="" style="endArrow=classic;html=1;rounded=0;entryX=1;entryY=0.5;entryDx=0;entryDy=0;exitX=0;exitY=0.5;exitDx=0;exitDy=0;" edge="1" parent="1" source="PYlpa8vcw6fMuh7m8NHM-25" target="PYlpa8vcw6fMuh7m8NHM-15">
          <mxGeometry width="50" height="50" relative="1" as="geometry">
            <mxPoint x="370" y="680" as="sourcePoint" />
            <mxPoint x="420" y="630" as="targetPoint" />
            <Array as="points">
              <mxPoint x="290" y="475" />
              <mxPoint x="290" y="560" />
            </Array>
          </mxGeometry>
        </mxCell>
        <mxCell id="PYlpa8vcw6fMuh7m8NHM-29" value="" style="endArrow=classic;html=1;rounded=0;exitX=0;exitY=0.5;exitDx=0;exitDy=0;entryX=1;entryY=0.5;entryDx=0;entryDy=0;" edge="1" parent="1" source="PYlpa8vcw6fMuh7m8NHM-19" target="PYlpa8vcw6fMuh7m8NHM-15">
          <mxGeometry width="50" height="50" relative="1" as="geometry">
            <mxPoint x="30" y="400" as="sourcePoint" />
            <mxPoint x="80" y="350" as="targetPoint" />
            <Array as="points">
              <mxPoint x="290" y="330" />
              <mxPoint x="290" y="560" />
            </Array>
          </mxGeometry>
        </mxCell>
        <mxCell id="PYlpa8vcw6fMuh7m8NHM-31" value="" style="endArrow=classic;html=1;rounded=0;exitX=0;exitY=0.75;exitDx=0;exitDy=0;entryX=1;entryY=0.5;entryDx=0;entryDy=0;jumpStyle=arc;" edge="1" parent="1" source="PYlpa8vcw6fMuh7m8NHM-25" target="PYlpa8vcw6fMuh7m8NHM-5">
          <mxGeometry width="50" height="50" relative="1" as="geometry">
            <mxPoint x="370" y="660" as="sourcePoint" />
            <mxPoint x="420" y="610" as="targetPoint" />
            <Array as="points">
              <mxPoint x="230" y="490" />
              <mxPoint x="230" y="640" />
            </Array>
          </mxGeometry>
        </mxCell>
        <mxCell id="PYlpa8vcw6fMuh7m8NHM-32" value="" style="endArrow=classic;html=1;rounded=0;entryX=1;entryY=0.5;entryDx=0;entryDy=0;exitX=0;exitY=0.75;exitDx=0;exitDy=0;jumpStyle=arc;" edge="1" parent="1" source="PYlpa8vcw6fMuh7m8NHM-19" target="PYlpa8vcw6fMuh7m8NHM-5">
          <mxGeometry width="50" height="50" relative="1" as="geometry">
            <mxPoint x="380" y="680" as="sourcePoint" />
            <mxPoint x="430" y="630" as="targetPoint" />
            <Array as="points">
              <mxPoint x="230" y="345" />
              <mxPoint x="230" y="640" />
            </Array>
          </mxGeometry>
        </mxCell>
        <mxCell id="PYlpa8vcw6fMuh7m8NHM-33" value="&amp;lt;&amp;lt;subscribe to tag&amp;gt;&amp;gt;" style="text;html=1;align=center;verticalAlign=middle;whiteSpace=wrap;rounded=0;" vertex="1" parent="1">
          <mxGeometry x="490" y="445" width="200" height="30" as="geometry" />
        </mxCell>
        <mxCell id="PYlpa8vcw6fMuh7m8NHM-34" value="&amp;lt;&amp;lt;subscribe to tag&amp;gt;&amp;gt;" style="text;html=1;align=center;verticalAlign=middle;whiteSpace=wrap;rounded=0;" vertex="1" parent="1">
          <mxGeometry x="490" y="300" width="200" height="30" as="geometry" />
        </mxCell>
      </root>
    </mxGraphModel>
  </diagram>
</mxfile>
